<mxfile host="app.diagrams.net" agent="Mozilla/5.0 (X11; Linux x86_64) AppleWebKit/537.36 (KHTML, like Gecko) Chrome/133.0.0.0 Safari/537.36" version="26.0.16" pages="4">
  <diagram name="iteration 0" id="dMavWdcSvfEM1dHn-bu7">
    <mxGraphModel grid="1" page="1" gridSize="10" guides="1" tooltips="1" connect="1" arrows="1" fold="1" pageScale="1" pageWidth="827" pageHeight="1169" math="0" shadow="0">
      <root>
        <mxCell id="0" />
        <mxCell id="1" parent="0" />
        <mxCell id="-rqdW3iIjI_EDjelF9go-1" value="" style="rounded=1;whiteSpace=wrap;html=1;dashed=1;dashPattern=8 8;fillColor=none;arcSize=6;" vertex="1" parent="1">
          <mxGeometry x="20" y="40" width="180" height="410" as="geometry" />
        </mxCell>
        <mxCell id="-rqdW3iIjI_EDjelF9go-2" value="" style="rounded=1;whiteSpace=wrap;html=1;dashed=1;dashPattern=8 8;fillColor=none;arcSize=6;" vertex="1" parent="1">
          <mxGeometry x="40" y="50" width="140" height="160" as="geometry" />
        </mxCell>
        <mxCell id="-rqdW3iIjI_EDjelF9go-3" value="" style="rounded=1;whiteSpace=wrap;html=1;dashed=1;dashPattern=8 8;fillColor=none;arcSize=6;" vertex="1" parent="1">
          <mxGeometry x="860" y="608" width="230" height="90" as="geometry" />
        </mxCell>
        <mxCell id="-rqdW3iIjI_EDjelF9go-4" value="KIP and Bricks School&lt;div&gt;DB&lt;/div&gt;" style="shape=cylinder3;whiteSpace=wrap;html=1;boundedLbl=1;backgroundOutline=1;size=15;" vertex="1" parent="1">
          <mxGeometry x="340" y="180" width="210" height="80" as="geometry" />
        </mxCell>
        <mxCell id="-rqdW3iIjI_EDjelF9go-5" value="Legend:" style="text;html=1;align=center;verticalAlign=middle;resizable=0;points=[];autosize=1;strokeColor=none;fillColor=none;" vertex="1" parent="1">
          <mxGeometry x="855" y="560" width="70" height="30" as="geometry" />
        </mxCell>
        <mxCell id="-rqdW3iIjI_EDjelF9go-6" value="Name Package&lt;div&gt;&lt;span style=&quot;font-size: 10px;&quot;&gt;additionally&lt;/span&gt;&lt;br&gt;&lt;/div&gt;" style="text;html=1;align=left;verticalAlign=middle;whiteSpace=wrap;rounded=0;" vertex="1" parent="1">
          <mxGeometry x="870" y="670" width="127" height="26.75" as="geometry" />
        </mxCell>
        <mxCell id="-rqdW3iIjI_EDjelF9go-7" value="Packege" style="text;html=1;align=center;verticalAlign=middle;resizable=0;points=[];autosize=1;strokeColor=none;fillColor=none;" vertex="1" parent="1">
          <mxGeometry x="1099" y="648" width="70" height="30" as="geometry" />
        </mxCell>
        <mxCell id="-rqdW3iIjI_EDjelF9go-8" value="Module Name" style="rounded=0;whiteSpace=wrap;html=1;" vertex="1" parent="1">
          <mxGeometry x="860" y="720" width="120" height="40" as="geometry" />
        </mxCell>
        <mxCell id="-rqdW3iIjI_EDjelF9go-9" value="Module" style="text;html=1;align=center;verticalAlign=middle;resizable=0;points=[];autosize=1;strokeColor=none;fillColor=none;" vertex="1" parent="1">
          <mxGeometry x="1104" y="725" width="60" height="30" as="geometry" />
        </mxCell>
        <mxCell id="-rqdW3iIjI_EDjelF9go-10" value="KIP Package&lt;div&gt;&lt;font style=&quot;font-size: 10px;&quot;&gt;General scope&lt;/font&gt;&lt;/div&gt;" style="text;html=1;align=left;verticalAlign=middle;whiteSpace=wrap;rounded=0;" vertex="1" parent="1">
          <mxGeometry x="40" y="394" width="80" height="30" as="geometry" />
        </mxCell>
        <mxCell id="-rqdW3iIjI_EDjelF9go-11" value="AuthenticationModule" style="rounded=0;whiteSpace=wrap;html=1;" vertex="1" parent="1">
          <mxGeometry x="50" y="60" width="120" height="40" as="geometry" />
        </mxCell>
        <mxCell id="-rqdW3iIjI_EDjelF9go-12" value="" style="group" vertex="1" connectable="0" parent="1">
          <mxGeometry x="40" y="220" width="140" height="160" as="geometry" />
        </mxCell>
        <mxCell id="-rqdW3iIjI_EDjelF9go-13" value="" style="rounded=1;whiteSpace=wrap;html=1;dashed=1;dashPattern=8 8;fillColor=none;arcSize=6;" vertex="1" parent="-rqdW3iIjI_EDjelF9go-12">
          <mxGeometry width="140" height="160" as="geometry" />
        </mxCell>
        <mxCell id="-rqdW3iIjI_EDjelF9go-14" value="CompetitionModule" style="rounded=0;whiteSpace=wrap;html=1;" vertex="1" parent="-rqdW3iIjI_EDjelF9go-12">
          <mxGeometry x="10" y="10" width="120" height="40" as="geometry" />
        </mxCell>
        <mxCell id="-rqdW3iIjI_EDjelF9go-15" value="ProfileModule" style="rounded=0;whiteSpace=wrap;html=1;" vertex="1" parent="-rqdW3iIjI_EDjelF9go-12">
          <mxGeometry x="10" y="60" width="120" height="40" as="geometry" />
        </mxCell>
        <mxCell id="-rqdW3iIjI_EDjelF9go-16" value="Business Package" style="text;html=1;align=left;verticalAlign=middle;whiteSpace=wrap;rounded=0;" vertex="1" parent="-rqdW3iIjI_EDjelF9go-12">
          <mxGeometry x="10" y="130" width="110" height="20" as="geometry" />
        </mxCell>
        <mxCell id="-rqdW3iIjI_EDjelF9go-17" value="" style="endArrow=classic;html=1;rounded=0;entryX=0;entryY=0.5;entryDx=0;entryDy=0;entryPerimeter=0;exitX=1;exitY=0.5;exitDx=0;exitDy=0;" edge="1" parent="1" source="-rqdW3iIjI_EDjelF9go-14" target="-rqdW3iIjI_EDjelF9go-4">
          <mxGeometry width="50" height="50" relative="1" as="geometry">
            <mxPoint x="180" y="80" as="sourcePoint" />
            <mxPoint x="270" y="250" as="targetPoint" />
          </mxGeometry>
        </mxCell>
        <mxCell id="-rqdW3iIjI_EDjelF9go-18" value="read/write" style="edgeLabel;html=1;align=center;verticalAlign=middle;resizable=0;points=[];" vertex="1" connectable="0" parent="-rqdW3iIjI_EDjelF9go-17">
          <mxGeometry x="0.1859" relative="1" as="geometry">
            <mxPoint as="offset" />
          </mxGeometry>
        </mxCell>
        <mxCell id="-rqdW3iIjI_EDjelF9go-19" value="" style="endArrow=classic;html=1;rounded=0;entryX=0;entryY=0.5;entryDx=0;entryDy=0;entryPerimeter=0;exitX=1;exitY=0.5;exitDx=0;exitDy=0;" edge="1" parent="1" source="-rqdW3iIjI_EDjelF9go-15" target="-rqdW3iIjI_EDjelF9go-4">
          <mxGeometry width="50" height="50" relative="1" as="geometry">
            <mxPoint x="180" y="150" as="sourcePoint" />
            <mxPoint x="270" y="250" as="targetPoint" />
          </mxGeometry>
        </mxCell>
        <mxCell id="-rqdW3iIjI_EDjelF9go-20" value="read" style="edgeLabel;html=1;align=center;verticalAlign=middle;resizable=0;points=[];" vertex="1" connectable="0" parent="-rqdW3iIjI_EDjelF9go-19">
          <mxGeometry x="0.1859" relative="1" as="geometry">
            <mxPoint as="offset" />
          </mxGeometry>
        </mxCell>
        <mxCell id="-rqdW3iIjI_EDjelF9go-21" value="" style="rounded=1;whiteSpace=wrap;html=1;dashed=1;dashPattern=8 8;fillColor=none;arcSize=6;" vertex="1" parent="1">
          <mxGeometry x="664" y="40" width="206" height="496" as="geometry" />
        </mxCell>
        <mxCell id="-rqdW3iIjI_EDjelF9go-22" value="Bricks Schol Package&lt;div&gt;&lt;font style=&quot;font-size: 10px;&quot;&gt;General scope&lt;/font&gt;&lt;/div&gt;" style="text;html=1;align=left;verticalAlign=middle;whiteSpace=wrap;rounded=0;" vertex="1" parent="1">
          <mxGeometry x="683" y="486" width="130" height="30" as="geometry" />
        </mxCell>
        <mxCell id="-rqdW3iIjI_EDjelF9go-23" value="RegistrationModule" style="rounded=0;whiteSpace=wrap;html=1;" vertex="1" parent="1">
          <mxGeometry x="50" y="110" width="120" height="40" as="geometry" />
        </mxCell>
        <mxCell id="-rqdW3iIjI_EDjelF9go-24" value="In\out Package" style="text;html=1;align=left;verticalAlign=middle;whiteSpace=wrap;rounded=0;" vertex="1" parent="1">
          <mxGeometry x="50" y="180" width="110" height="20" as="geometry" />
        </mxCell>
        <mxCell id="-rqdW3iIjI_EDjelF9go-25" value="" style="endArrow=classic;html=1;rounded=0;exitX=1;exitY=0.5;exitDx=0;exitDy=0;entryX=0;entryY=0.5;entryDx=0;entryDy=0;entryPerimeter=0;" edge="1" parent="1" source="-rqdW3iIjI_EDjelF9go-11" target="-rqdW3iIjI_EDjelF9go-4">
          <mxGeometry width="50" height="50" relative="1" as="geometry">
            <mxPoint x="180" y="260" as="sourcePoint" />
            <mxPoint x="430" y="280" as="targetPoint" />
          </mxGeometry>
        </mxCell>
        <mxCell id="-rqdW3iIjI_EDjelF9go-26" value="read/write" style="edgeLabel;html=1;align=center;verticalAlign=middle;resizable=0;points=[];" vertex="1" connectable="0" parent="-rqdW3iIjI_EDjelF9go-25">
          <mxGeometry x="0.1859" relative="1" as="geometry">
            <mxPoint as="offset" />
          </mxGeometry>
        </mxCell>
        <mxCell id="-rqdW3iIjI_EDjelF9go-27" value="" style="endArrow=classic;html=1;rounded=0;exitX=1;exitY=0.5;exitDx=0;exitDy=0;entryX=0;entryY=0.5;entryDx=0;entryDy=0;entryPerimeter=0;" edge="1" parent="1" source="-rqdW3iIjI_EDjelF9go-23" target="-rqdW3iIjI_EDjelF9go-4">
          <mxGeometry width="50" height="50" relative="1" as="geometry">
            <mxPoint x="180" y="90" as="sourcePoint" />
            <mxPoint x="440" y="270" as="targetPoint" />
          </mxGeometry>
        </mxCell>
        <mxCell id="-rqdW3iIjI_EDjelF9go-28" value="read/write" style="edgeLabel;html=1;align=center;verticalAlign=middle;resizable=0;points=[];" vertex="1" connectable="0" parent="-rqdW3iIjI_EDjelF9go-27">
          <mxGeometry x="0.1859" relative="1" as="geometry">
            <mxPoint as="offset" />
          </mxGeometry>
        </mxCell>
        <mxCell id="-rqdW3iIjI_EDjelF9go-29" value="" style="rounded=1;whiteSpace=wrap;html=1;dashed=1;dashPattern=8 8;fillColor=none;arcSize=6;" vertex="1" parent="1">
          <mxGeometry x="678" y="56" width="140" height="160" as="geometry" />
        </mxCell>
        <mxCell id="-rqdW3iIjI_EDjelF9go-30" value="AuthenticationModule" style="rounded=0;whiteSpace=wrap;html=1;" vertex="1" parent="1">
          <mxGeometry x="688" y="66" width="120" height="40" as="geometry" />
        </mxCell>
        <mxCell id="-rqdW3iIjI_EDjelF9go-31" value="RegistrationModule" style="rounded=0;whiteSpace=wrap;html=1;" vertex="1" parent="1">
          <mxGeometry x="688" y="116" width="120" height="40" as="geometry" />
        </mxCell>
        <mxCell id="-rqdW3iIjI_EDjelF9go-32" value="In\out Package" style="text;html=1;align=left;verticalAlign=middle;whiteSpace=wrap;rounded=0;" vertex="1" parent="1">
          <mxGeometry x="688" y="186" width="110" height="20" as="geometry" />
        </mxCell>
        <mxCell id="-rqdW3iIjI_EDjelF9go-33" value="" style="rounded=1;whiteSpace=wrap;html=1;dashed=1;dashPattern=8 8;fillColor=none;arcSize=6;" vertex="1" parent="1">
          <mxGeometry x="678" y="226" width="172" height="250" as="geometry" />
        </mxCell>
        <mxCell id="-rqdW3iIjI_EDjelF9go-34" value="" style="rounded=1;whiteSpace=wrap;html=1;dashed=1;dashPattern=8 8;fillColor=none;arcSize=6;" vertex="1" parent="1">
          <mxGeometry x="688" y="236" width="142" height="150" as="geometry" />
        </mxCell>
        <mxCell id="-rqdW3iIjI_EDjelF9go-35" value="CompetitionModule" style="rounded=0;whiteSpace=wrap;html=1;" vertex="1" parent="1">
          <mxGeometry x="698" y="248" width="120" height="40" as="geometry" />
        </mxCell>
        <mxCell id="-rqdW3iIjI_EDjelF9go-36" value="ParticipantModule" style="rounded=0;whiteSpace=wrap;html=1;" vertex="1" parent="1">
          <mxGeometry x="698" y="296" width="120" height="40" as="geometry" />
        </mxCell>
        <mxCell id="-rqdW3iIjI_EDjelF9go-37" value="Competiton Package" style="text;html=1;align=left;verticalAlign=middle;whiteSpace=wrap;rounded=0;" vertex="1" parent="1">
          <mxGeometry x="703" y="356" width="117" height="20" as="geometry" />
        </mxCell>
        <mxCell id="-rqdW3iIjI_EDjelF9go-38" value="ProfileModule" style="rounded=0;whiteSpace=wrap;html=1;" vertex="1" parent="1">
          <mxGeometry x="701.5" y="400" width="120" height="40" as="geometry" />
        </mxCell>
        <mxCell id="-rqdW3iIjI_EDjelF9go-39" value="Business Package" style="text;html=1;align=left;verticalAlign=middle;whiteSpace=wrap;rounded=0;" vertex="1" parent="1">
          <mxGeometry x="703" y="450" width="117" height="20" as="geometry" />
        </mxCell>
        <mxCell id="-rqdW3iIjI_EDjelF9go-40" value="" style="endArrow=classic;html=1;rounded=0;exitX=0;exitY=0.5;exitDx=0;exitDy=0;entryX=0.5;entryY=0;entryDx=0;entryDy=0;entryPerimeter=0;" edge="1" parent="1" source="-rqdW3iIjI_EDjelF9go-30" target="-rqdW3iIjI_EDjelF9go-4">
          <mxGeometry width="50" height="50" relative="1" as="geometry">
            <mxPoint x="180" y="90" as="sourcePoint" />
            <mxPoint x="350" y="230" as="targetPoint" />
          </mxGeometry>
        </mxCell>
        <mxCell id="-rqdW3iIjI_EDjelF9go-41" value="read/write" style="edgeLabel;html=1;align=center;verticalAlign=middle;resizable=0;points=[];" vertex="1" connectable="0" parent="-rqdW3iIjI_EDjelF9go-40">
          <mxGeometry x="0.1859" relative="1" as="geometry">
            <mxPoint as="offset" />
          </mxGeometry>
        </mxCell>
        <mxCell id="-rqdW3iIjI_EDjelF9go-42" value="" style="endArrow=classic;html=1;rounded=0;exitX=0;exitY=0.5;exitDx=0;exitDy=0;entryX=0.855;entryY=0;entryDx=0;entryDy=4.35;entryPerimeter=0;" edge="1" parent="1" source="-rqdW3iIjI_EDjelF9go-31" target="-rqdW3iIjI_EDjelF9go-4">
          <mxGeometry width="50" height="50" relative="1" as="geometry">
            <mxPoint x="619" y="70" as="sourcePoint" />
            <mxPoint x="455" y="190" as="targetPoint" />
          </mxGeometry>
        </mxCell>
        <mxCell id="-rqdW3iIjI_EDjelF9go-43" value="read/write" style="edgeLabel;html=1;align=center;verticalAlign=middle;resizable=0;points=[];" vertex="1" connectable="0" parent="-rqdW3iIjI_EDjelF9go-42">
          <mxGeometry x="0.1859" relative="1" as="geometry">
            <mxPoint as="offset" />
          </mxGeometry>
        </mxCell>
        <mxCell id="-rqdW3iIjI_EDjelF9go-44" value="" style="endArrow=classic;html=1;rounded=0;exitX=0;exitY=0.5;exitDx=0;exitDy=0;entryX=1;entryY=0.5;entryDx=0;entryDy=0;entryPerimeter=0;" edge="1" parent="1" source="-rqdW3iIjI_EDjelF9go-35" target="-rqdW3iIjI_EDjelF9go-4">
          <mxGeometry width="50" height="50" relative="1" as="geometry">
            <mxPoint x="619" y="120" as="sourcePoint" />
            <mxPoint x="530" y="194" as="targetPoint" />
          </mxGeometry>
        </mxCell>
        <mxCell id="-rqdW3iIjI_EDjelF9go-45" value="read/write" style="edgeLabel;html=1;align=center;verticalAlign=middle;resizable=0;points=[];" vertex="1" connectable="0" parent="-rqdW3iIjI_EDjelF9go-44">
          <mxGeometry x="0.1859" relative="1" as="geometry">
            <mxPoint as="offset" />
          </mxGeometry>
        </mxCell>
        <mxCell id="-rqdW3iIjI_EDjelF9go-46" value="" style="endArrow=classic;html=1;rounded=0;exitX=0;exitY=0.5;exitDx=0;exitDy=0;entryX=0.855;entryY=1;entryDx=0;entryDy=-4.35;entryPerimeter=0;" edge="1" parent="1" source="-rqdW3iIjI_EDjelF9go-36" target="-rqdW3iIjI_EDjelF9go-4">
          <mxGeometry width="50" height="50" relative="1" as="geometry">
            <mxPoint x="619" y="120" as="sourcePoint" />
            <mxPoint x="530" y="194" as="targetPoint" />
          </mxGeometry>
        </mxCell>
        <mxCell id="-rqdW3iIjI_EDjelF9go-47" value="read" style="edgeLabel;html=1;align=center;verticalAlign=middle;resizable=0;points=[];" vertex="1" connectable="0" parent="-rqdW3iIjI_EDjelF9go-46">
          <mxGeometry x="0.1859" relative="1" as="geometry">
            <mxPoint as="offset" />
          </mxGeometry>
        </mxCell>
        <mxCell id="-rqdW3iIjI_EDjelF9go-48" value="" style="endArrow=classic;html=1;rounded=0;exitX=0;exitY=0.75;exitDx=0;exitDy=0;entryX=0.855;entryY=1;entryDx=0;entryDy=-4.35;entryPerimeter=0;" edge="1" parent="1" source="-rqdW3iIjI_EDjelF9go-38" target="-rqdW3iIjI_EDjelF9go-4">
          <mxGeometry width="50" height="50" relative="1" as="geometry">
            <mxPoint x="629" y="300" as="sourcePoint" />
            <mxPoint x="530" y="266" as="targetPoint" />
          </mxGeometry>
        </mxCell>
        <mxCell id="-rqdW3iIjI_EDjelF9go-49" value="read" style="edgeLabel;html=1;align=center;verticalAlign=middle;resizable=0;points=[];" vertex="1" connectable="0" parent="-rqdW3iIjI_EDjelF9go-48">
          <mxGeometry x="0.1859" relative="1" as="geometry">
            <mxPoint as="offset" />
          </mxGeometry>
        </mxCell>
        <mxCell id="-rqdW3iIjI_EDjelF9go-50" value="" style="endArrow=classic;html=1;rounded=0;" edge="1" parent="1">
          <mxGeometry width="50" height="50" relative="1" as="geometry">
            <mxPoint x="860" y="780" as="sourcePoint" />
            <mxPoint x="970" y="780" as="targetPoint" />
          </mxGeometry>
        </mxCell>
        <mxCell id="-rqdW3iIjI_EDjelF9go-51" value="connection name" style="edgeLabel;html=1;align=center;verticalAlign=middle;resizable=0;points=[];" vertex="1" connectable="0" parent="-rqdW3iIjI_EDjelF9go-50">
          <mxGeometry x="-0.1409" y="1" relative="1" as="geometry">
            <mxPoint x="3" as="offset" />
          </mxGeometry>
        </mxCell>
        <mxCell id="-rqdW3iIjI_EDjelF9go-52" value="Connection" style="text;html=1;align=center;verticalAlign=middle;resizable=0;points=[];autosize=1;strokeColor=none;fillColor=none;" vertex="1" parent="1">
          <mxGeometry x="1089" y="770" width="80" height="30" as="geometry" />
        </mxCell>
        <mxCell id="-rqdW3iIjI_EDjelF9go-53" value="" style="rounded=0;whiteSpace=wrap;html=1;fillColor=none;" vertex="1" parent="1">
          <mxGeometry x="840" y="560" width="330" height="260" as="geometry" />
        </mxCell>
        <mxCell id="-rqdW3iIjI_EDjelF9go-54" value="" style="rounded=1;whiteSpace=wrap;html=1;dashed=1;dashPattern=8 8;fillColor=none;arcSize=6;" vertex="1" parent="1">
          <mxGeometry x="280" y="545" width="140" height="210" as="geometry" />
        </mxCell>
        <mxCell id="-rqdW3iIjI_EDjelF9go-55" value="Frontend" style="text;html=1;align=left;verticalAlign=middle;whiteSpace=wrap;rounded=0;" vertex="1" parent="1">
          <mxGeometry x="290" y="730" width="60" height="16" as="geometry" />
        </mxCell>
        <mxCell id="-rqdW3iIjI_EDjelF9go-56" value="KIPWebModule" style="rounded=0;whiteSpace=wrap;html=1;" vertex="1" parent="1">
          <mxGeometry x="290" y="570" width="120" height="40" as="geometry" />
        </mxCell>
        <mxCell id="-rqdW3iIjI_EDjelF9go-58" value="" style="endArrow=classic;startArrow=classic;html=1;rounded=0;entryX=0;entryY=0.5;entryDx=0;entryDy=0;exitX=1;exitY=0.75;exitDx=0;exitDy=0;" edge="1" parent="1" source="-rqdW3iIjI_EDjelF9go-1" target="-rqdW3iIjI_EDjelF9go-56">
          <mxGeometry width="50" height="50" relative="1" as="geometry">
            <mxPoint x="190" y="480" as="sourcePoint" />
            <mxPoint x="240" y="430" as="targetPoint" />
          </mxGeometry>
        </mxCell>
        <mxCell id="-rqdW3iIjI_EDjelF9go-59" value="REST API" style="edgeLabel;html=1;align=center;verticalAlign=middle;resizable=0;points=[];" vertex="1" connectable="0" parent="-rqdW3iIjI_EDjelF9go-58">
          <mxGeometry x="0.0062" y="-4" relative="1" as="geometry">
            <mxPoint as="offset" />
          </mxGeometry>
        </mxCell>
        <mxCell id="-rqdW3iIjI_EDjelF9go-60" value="" style="endArrow=classic;startArrow=classic;html=1;rounded=0;entryX=0;entryY=0.75;entryDx=0;entryDy=0;" edge="1" parent="1" source="fFUq8hqdws5iUDlQd2t6-1" target="-rqdW3iIjI_EDjelF9go-21">
          <mxGeometry width="50" height="50" relative="1" as="geometry">
            <mxPoint x="460" y="430" as="sourcePoint" />
            <mxPoint x="510" y="380" as="targetPoint" />
          </mxGeometry>
        </mxCell>
        <mxCell id="fFUq8hqdws5iUDlQd2t6-1" value="" style="rounded=1;whiteSpace=wrap;html=1;dashed=1;dashPattern=8 8;fillColor=none;arcSize=6;" vertex="1" parent="1">
          <mxGeometry x="515" y="560" width="140" height="210" as="geometry" />
        </mxCell>
        <mxCell id="fFUq8hqdws5iUDlQd2t6-2" value="Frontend" style="text;html=1;align=left;verticalAlign=middle;whiteSpace=wrap;rounded=0;" vertex="1" parent="1">
          <mxGeometry x="525" y="745" width="60" height="16" as="geometry" />
        </mxCell>
        <mxCell id="fFUq8hqdws5iUDlQd2t6-4" value="BricksWebModule" style="rounded=0;whiteSpace=wrap;html=1;" vertex="1" parent="1">
          <mxGeometry x="525" y="590" width="120" height="40" as="geometry" />
        </mxCell>
      </root>
    </mxGraphModel>
  </diagram>
  <diagram id="rIVIZV8c2-z6NlX29bDE" name="iteration 1">
    <mxGraphModel grid="1" page="1" gridSize="10" guides="1" tooltips="1" connect="1" arrows="1" fold="1" pageScale="1" pageWidth="1169" pageHeight="827" math="0" shadow="0">
      <root>
        <mxCell id="0" />
        <mxCell id="1" parent="0" />
        <mxCell id="N6kJEQreYBYqL_7QNzlf-7" value="" style="rounded=1;whiteSpace=wrap;html=1;dashed=1;dashPattern=8 8;fillColor=none;arcSize=6;" vertex="1" parent="1">
          <mxGeometry y="470" width="850" height="70" as="geometry" />
        </mxCell>
        <mxCell id="bXI9zsy0QG3j4bNvQFsI-1" value="" style="rounded=1;whiteSpace=wrap;html=1;dashed=1;dashPattern=8 8;fillColor=none;arcSize=6;" vertex="1" parent="1">
          <mxGeometry width="180" height="360" as="geometry" />
        </mxCell>
        <mxCell id="bXI9zsy0QG3j4bNvQFsI-2" value="" style="rounded=1;whiteSpace=wrap;html=1;dashed=1;dashPattern=8 8;fillColor=none;arcSize=6;" vertex="1" parent="1">
          <mxGeometry x="20" y="10" width="140" height="110" as="geometry" />
        </mxCell>
        <mxCell id="bXI9zsy0QG3j4bNvQFsI-3" value="" style="rounded=1;whiteSpace=wrap;html=1;dashed=1;dashPattern=8 8;fillColor=none;arcSize=6;" vertex="1" parent="1">
          <mxGeometry x="880" y="521" width="230" height="90" as="geometry" />
        </mxCell>
        <mxCell id="bXI9zsy0QG3j4bNvQFsI-4" value="KIP and Bricks School&lt;div&gt;DB&lt;/div&gt;" style="shape=cylinder3;whiteSpace=wrap;html=1;boundedLbl=1;backgroundOutline=1;size=15;" vertex="1" parent="1">
          <mxGeometry x="320" y="140" width="210" height="80" as="geometry" />
        </mxCell>
        <mxCell id="bXI9zsy0QG3j4bNvQFsI-5" value="Legend:" style="text;html=1;align=center;verticalAlign=middle;resizable=0;points=[];autosize=1;strokeColor=none;fillColor=none;" vertex="1" parent="1">
          <mxGeometry x="875" y="473" width="70" height="30" as="geometry" />
        </mxCell>
        <mxCell id="bXI9zsy0QG3j4bNvQFsI-6" value="Name Package&lt;div&gt;&lt;span style=&quot;font-size: 10px;&quot;&gt;additionally&lt;/span&gt;&lt;br&gt;&lt;/div&gt;" style="text;html=1;align=left;verticalAlign=middle;whiteSpace=wrap;rounded=0;" vertex="1" parent="1">
          <mxGeometry x="890" y="583" width="127" height="26.75" as="geometry" />
        </mxCell>
        <mxCell id="bXI9zsy0QG3j4bNvQFsI-7" value="Packege" style="text;html=1;align=center;verticalAlign=middle;resizable=0;points=[];autosize=1;strokeColor=none;fillColor=none;" vertex="1" parent="1">
          <mxGeometry x="1119" y="561" width="70" height="30" as="geometry" />
        </mxCell>
        <mxCell id="bXI9zsy0QG3j4bNvQFsI-8" value="Module Name" style="rounded=0;whiteSpace=wrap;html=1;" vertex="1" parent="1">
          <mxGeometry x="880" y="633" width="120" height="40" as="geometry" />
        </mxCell>
        <mxCell id="bXI9zsy0QG3j4bNvQFsI-9" value="Module" style="text;html=1;align=center;verticalAlign=middle;resizable=0;points=[];autosize=1;strokeColor=none;fillColor=none;" vertex="1" parent="1">
          <mxGeometry x="1124" y="638" width="60" height="30" as="geometry" />
        </mxCell>
        <mxCell id="bXI9zsy0QG3j4bNvQFsI-10" value="KIP Package&lt;div&gt;&lt;font style=&quot;font-size: 10px;&quot;&gt;General scope&lt;/font&gt;&lt;/div&gt;" style="text;html=1;align=left;verticalAlign=middle;whiteSpace=wrap;rounded=0;" vertex="1" parent="1">
          <mxGeometry x="20" y="316" width="80" height="30" as="geometry" />
        </mxCell>
        <mxCell id="bXI9zsy0QG3j4bNvQFsI-12" value="" style="group" connectable="0" vertex="1" parent="1">
          <mxGeometry x="20" y="180" width="140" height="160" as="geometry" />
        </mxCell>
        <mxCell id="bXI9zsy0QG3j4bNvQFsI-13" value="" style="rounded=1;whiteSpace=wrap;html=1;dashed=1;dashPattern=8 8;fillColor=none;arcSize=6;" vertex="1" parent="bXI9zsy0QG3j4bNvQFsI-12">
          <mxGeometry y="-50" width="140" height="160" as="geometry" />
        </mxCell>
        <mxCell id="bXI9zsy0QG3j4bNvQFsI-14" value="CompetitionModule" style="rounded=0;whiteSpace=wrap;html=1;" vertex="1" parent="bXI9zsy0QG3j4bNvQFsI-12">
          <mxGeometry x="10" y="-40" width="120" height="40" as="geometry" />
        </mxCell>
        <mxCell id="bXI9zsy0QG3j4bNvQFsI-15" value="ProfileModule" style="rounded=0;whiteSpace=wrap;html=1;" vertex="1" parent="bXI9zsy0QG3j4bNvQFsI-12">
          <mxGeometry x="10" y="10" width="120" height="40" as="geometry" />
        </mxCell>
        <mxCell id="bXI9zsy0QG3j4bNvQFsI-16" value="Business Package" style="text;html=1;align=left;verticalAlign=middle;whiteSpace=wrap;rounded=0;" vertex="1" parent="bXI9zsy0QG3j4bNvQFsI-12">
          <mxGeometry x="10" y="80" width="110" height="20" as="geometry" />
        </mxCell>
        <mxCell id="bXI9zsy0QG3j4bNvQFsI-17" value="" style="endArrow=classic;html=1;rounded=0;entryX=0;entryY=0.5;entryDx=0;entryDy=0;entryPerimeter=0;exitX=1;exitY=0.5;exitDx=0;exitDy=0;" edge="1" parent="1" source="bXI9zsy0QG3j4bNvQFsI-14" target="bXI9zsy0QG3j4bNvQFsI-4">
          <mxGeometry width="50" height="50" relative="1" as="geometry">
            <mxPoint x="160" y="40" as="sourcePoint" />
            <mxPoint x="250" y="210" as="targetPoint" />
          </mxGeometry>
        </mxCell>
        <mxCell id="bXI9zsy0QG3j4bNvQFsI-18" value="read/write" style="edgeLabel;html=1;align=center;verticalAlign=middle;resizable=0;points=[];" connectable="0" vertex="1" parent="bXI9zsy0QG3j4bNvQFsI-17">
          <mxGeometry x="0.1859" relative="1" as="geometry">
            <mxPoint as="offset" />
          </mxGeometry>
        </mxCell>
        <mxCell id="bXI9zsy0QG3j4bNvQFsI-19" value="" style="endArrow=classic;html=1;rounded=0;entryX=0;entryY=0.5;entryDx=0;entryDy=0;entryPerimeter=0;exitX=1;exitY=0.5;exitDx=0;exitDy=0;" edge="1" parent="1" source="bXI9zsy0QG3j4bNvQFsI-15" target="bXI9zsy0QG3j4bNvQFsI-4">
          <mxGeometry width="50" height="50" relative="1" as="geometry">
            <mxPoint x="160" y="110" as="sourcePoint" />
            <mxPoint x="250" y="210" as="targetPoint" />
          </mxGeometry>
        </mxCell>
        <mxCell id="bXI9zsy0QG3j4bNvQFsI-20" value="read" style="edgeLabel;html=1;align=center;verticalAlign=middle;resizable=0;points=[];" connectable="0" vertex="1" parent="bXI9zsy0QG3j4bNvQFsI-19">
          <mxGeometry x="0.1859" relative="1" as="geometry">
            <mxPoint as="offset" />
          </mxGeometry>
        </mxCell>
        <mxCell id="bXI9zsy0QG3j4bNvQFsI-21" value="" style="rounded=1;whiteSpace=wrap;html=1;dashed=1;dashPattern=8 8;fillColor=none;arcSize=6;" vertex="1" parent="1">
          <mxGeometry x="644" width="206" height="420" as="geometry" />
        </mxCell>
        <mxCell id="bXI9zsy0QG3j4bNvQFsI-22" value="Bricks Schol Package&lt;div&gt;&lt;font style=&quot;font-size: 10px;&quot;&gt;General scope&lt;/font&gt;&lt;/div&gt;" style="text;html=1;align=left;verticalAlign=middle;whiteSpace=wrap;rounded=0;" vertex="1" parent="1">
          <mxGeometry x="660" y="390" width="130" height="30" as="geometry" />
        </mxCell>
        <mxCell id="bXI9zsy0QG3j4bNvQFsI-23" value="RegistrationModule" style="rounded=0;whiteSpace=wrap;html=1;" vertex="1" parent="1">
          <mxGeometry x="25" y="30" width="120" height="40" as="geometry" />
        </mxCell>
        <mxCell id="bXI9zsy0QG3j4bNvQFsI-24" value="In\out Package" style="text;html=1;align=left;verticalAlign=middle;whiteSpace=wrap;rounded=0;" vertex="1" parent="1">
          <mxGeometry x="25" y="90" width="110" height="20" as="geometry" />
        </mxCell>
        <mxCell id="bXI9zsy0QG3j4bNvQFsI-27" value="" style="endArrow=classic;html=1;rounded=0;exitX=1;exitY=0.5;exitDx=0;exitDy=0;entryX=0;entryY=0.5;entryDx=0;entryDy=0;entryPerimeter=0;" edge="1" parent="1" source="bXI9zsy0QG3j4bNvQFsI-23" target="bXI9zsy0QG3j4bNvQFsI-4">
          <mxGeometry width="50" height="50" relative="1" as="geometry">
            <mxPoint x="160" y="50" as="sourcePoint" />
            <mxPoint x="420" y="230" as="targetPoint" />
          </mxGeometry>
        </mxCell>
        <mxCell id="bXI9zsy0QG3j4bNvQFsI-28" value="read/write" style="edgeLabel;html=1;align=center;verticalAlign=middle;resizable=0;points=[];" connectable="0" vertex="1" parent="bXI9zsy0QG3j4bNvQFsI-27">
          <mxGeometry x="0.1859" relative="1" as="geometry">
            <mxPoint as="offset" />
          </mxGeometry>
        </mxCell>
        <mxCell id="bXI9zsy0QG3j4bNvQFsI-29" value="" style="rounded=1;whiteSpace=wrap;html=1;dashed=1;dashPattern=8 8;fillColor=none;arcSize=6;" vertex="1" parent="1">
          <mxGeometry x="658" y="16" width="140" height="114" as="geometry" />
        </mxCell>
        <mxCell id="bXI9zsy0QG3j4bNvQFsI-31" value="RegistrationModule" style="rounded=0;whiteSpace=wrap;html=1;" vertex="1" parent="1">
          <mxGeometry x="673" y="40" width="120" height="40" as="geometry" />
        </mxCell>
        <mxCell id="bXI9zsy0QG3j4bNvQFsI-32" value="In\out Package" style="text;html=1;align=left;verticalAlign=middle;whiteSpace=wrap;rounded=0;" vertex="1" parent="1">
          <mxGeometry x="668" y="100" width="110" height="20" as="geometry" />
        </mxCell>
        <mxCell id="bXI9zsy0QG3j4bNvQFsI-33" value="" style="rounded=1;whiteSpace=wrap;html=1;dashed=1;dashPattern=8 8;fillColor=none;arcSize=6;" vertex="1" parent="1">
          <mxGeometry x="658" y="150" width="172" height="230" as="geometry" />
        </mxCell>
        <mxCell id="bXI9zsy0QG3j4bNvQFsI-34" value="" style="rounded=1;whiteSpace=wrap;html=1;dashed=1;dashPattern=8 8;fillColor=none;arcSize=6;" vertex="1" parent="1">
          <mxGeometry x="668" y="160" width="142" height="140" as="geometry" />
        </mxCell>
        <mxCell id="bXI9zsy0QG3j4bNvQFsI-35" value="CompetitionModule" style="rounded=0;whiteSpace=wrap;html=1;" vertex="1" parent="1">
          <mxGeometry x="678" y="172" width="120" height="40" as="geometry" />
        </mxCell>
        <mxCell id="bXI9zsy0QG3j4bNvQFsI-36" value="ParticipantModule" style="rounded=0;whiteSpace=wrap;html=1;" vertex="1" parent="1">
          <mxGeometry x="678" y="220" width="120" height="40" as="geometry" />
        </mxCell>
        <mxCell id="bXI9zsy0QG3j4bNvQFsI-37" value="Competiton Package" style="text;html=1;align=left;verticalAlign=middle;whiteSpace=wrap;rounded=0;" vertex="1" parent="1">
          <mxGeometry x="683" y="272" width="117" height="20" as="geometry" />
        </mxCell>
        <mxCell id="bXI9zsy0QG3j4bNvQFsI-38" value="ProfileModule" style="rounded=0;whiteSpace=wrap;html=1;" vertex="1" parent="1">
          <mxGeometry x="673" y="311" width="120" height="40" as="geometry" />
        </mxCell>
        <mxCell id="bXI9zsy0QG3j4bNvQFsI-39" value="Business Package" style="text;html=1;align=left;verticalAlign=middle;whiteSpace=wrap;rounded=0;" vertex="1" parent="1">
          <mxGeometry x="673" y="360" width="117" height="20" as="geometry" />
        </mxCell>
        <mxCell id="bXI9zsy0QG3j4bNvQFsI-42" value="" style="endArrow=classic;html=1;rounded=0;exitX=0;exitY=0.5;exitDx=0;exitDy=0;entryX=0.855;entryY=0;entryDx=0;entryDy=4.35;entryPerimeter=0;" edge="1" parent="1" source="bXI9zsy0QG3j4bNvQFsI-31" target="bXI9zsy0QG3j4bNvQFsI-4">
          <mxGeometry width="50" height="50" relative="1" as="geometry">
            <mxPoint x="599" y="30" as="sourcePoint" />
            <mxPoint x="435" y="150" as="targetPoint" />
          </mxGeometry>
        </mxCell>
        <mxCell id="bXI9zsy0QG3j4bNvQFsI-43" value="read/write" style="edgeLabel;html=1;align=center;verticalAlign=middle;resizable=0;points=[];" connectable="0" vertex="1" parent="bXI9zsy0QG3j4bNvQFsI-42">
          <mxGeometry x="0.1859" relative="1" as="geometry">
            <mxPoint as="offset" />
          </mxGeometry>
        </mxCell>
        <mxCell id="bXI9zsy0QG3j4bNvQFsI-44" value="" style="endArrow=classic;html=1;rounded=0;exitX=0;exitY=0.5;exitDx=0;exitDy=0;entryX=1;entryY=0.5;entryDx=0;entryDy=0;entryPerimeter=0;" edge="1" parent="1" source="bXI9zsy0QG3j4bNvQFsI-35" target="bXI9zsy0QG3j4bNvQFsI-4">
          <mxGeometry width="50" height="50" relative="1" as="geometry">
            <mxPoint x="599" y="80" as="sourcePoint" />
            <mxPoint x="510" y="154" as="targetPoint" />
          </mxGeometry>
        </mxCell>
        <mxCell id="bXI9zsy0QG3j4bNvQFsI-45" value="read/write" style="edgeLabel;html=1;align=center;verticalAlign=middle;resizable=0;points=[];" connectable="0" vertex="1" parent="bXI9zsy0QG3j4bNvQFsI-44">
          <mxGeometry x="0.1859" relative="1" as="geometry">
            <mxPoint as="offset" />
          </mxGeometry>
        </mxCell>
        <mxCell id="bXI9zsy0QG3j4bNvQFsI-46" value="" style="endArrow=classic;html=1;rounded=0;exitX=0;exitY=0.5;exitDx=0;exitDy=0;entryX=0.855;entryY=1;entryDx=0;entryDy=-4.35;entryPerimeter=0;" edge="1" parent="1" source="bXI9zsy0QG3j4bNvQFsI-36" target="bXI9zsy0QG3j4bNvQFsI-4">
          <mxGeometry width="50" height="50" relative="1" as="geometry">
            <mxPoint x="599" y="80" as="sourcePoint" />
            <mxPoint x="510" y="154" as="targetPoint" />
          </mxGeometry>
        </mxCell>
        <mxCell id="bXI9zsy0QG3j4bNvQFsI-47" value="read" style="edgeLabel;html=1;align=center;verticalAlign=middle;resizable=0;points=[];" connectable="0" vertex="1" parent="bXI9zsy0QG3j4bNvQFsI-46">
          <mxGeometry x="0.1859" relative="1" as="geometry">
            <mxPoint as="offset" />
          </mxGeometry>
        </mxCell>
        <mxCell id="bXI9zsy0QG3j4bNvQFsI-48" value="" style="endArrow=classic;html=1;rounded=0;exitX=0;exitY=0.75;exitDx=0;exitDy=0;entryX=0.855;entryY=1;entryDx=0;entryDy=-4.35;entryPerimeter=0;" edge="1" parent="1" source="bXI9zsy0QG3j4bNvQFsI-38" target="bXI9zsy0QG3j4bNvQFsI-4">
          <mxGeometry width="50" height="50" relative="1" as="geometry">
            <mxPoint x="609" y="260" as="sourcePoint" />
            <mxPoint x="510" y="226" as="targetPoint" />
          </mxGeometry>
        </mxCell>
        <mxCell id="bXI9zsy0QG3j4bNvQFsI-49" value="read" style="edgeLabel;html=1;align=center;verticalAlign=middle;resizable=0;points=[];" connectable="0" vertex="1" parent="bXI9zsy0QG3j4bNvQFsI-48">
          <mxGeometry x="0.1859" relative="1" as="geometry">
            <mxPoint as="offset" />
          </mxGeometry>
        </mxCell>
        <mxCell id="bXI9zsy0QG3j4bNvQFsI-50" value="" style="endArrow=classic;html=1;rounded=0;" edge="1" parent="1">
          <mxGeometry width="50" height="50" relative="1" as="geometry">
            <mxPoint x="880" y="693" as="sourcePoint" />
            <mxPoint x="990" y="693" as="targetPoint" />
          </mxGeometry>
        </mxCell>
        <mxCell id="bXI9zsy0QG3j4bNvQFsI-51" value="connection name" style="edgeLabel;html=1;align=center;verticalAlign=middle;resizable=0;points=[];" connectable="0" vertex="1" parent="bXI9zsy0QG3j4bNvQFsI-50">
          <mxGeometry x="-0.1409" y="1" relative="1" as="geometry">
            <mxPoint x="3" as="offset" />
          </mxGeometry>
        </mxCell>
        <mxCell id="bXI9zsy0QG3j4bNvQFsI-52" value="Connection" style="text;html=1;align=center;verticalAlign=middle;resizable=0;points=[];autosize=1;strokeColor=none;fillColor=none;" vertex="1" parent="1">
          <mxGeometry x="1109" y="683" width="80" height="30" as="geometry" />
        </mxCell>
        <mxCell id="bXI9zsy0QG3j4bNvQFsI-53" value="" style="rounded=0;whiteSpace=wrap;html=1;fillColor=none;" vertex="1" parent="1">
          <mxGeometry x="860" y="473" width="330" height="260" as="geometry" />
        </mxCell>
        <mxCell id="bXI9zsy0QG3j4bNvQFsI-54" value="" style="rounded=1;whiteSpace=wrap;html=1;dashed=1;dashPattern=8 8;fillColor=none;arcSize=6;" vertex="1" parent="1">
          <mxGeometry y="615" width="360" height="75" as="geometry" />
        </mxCell>
        <mxCell id="bXI9zsy0QG3j4bNvQFsI-55" value="Frontend" style="text;html=1;align=left;verticalAlign=middle;whiteSpace=wrap;rounded=0;" vertex="1" parent="1">
          <mxGeometry x="290" y="668" width="60" height="16" as="geometry" />
        </mxCell>
        <mxCell id="bXI9zsy0QG3j4bNvQFsI-56" value="KIPWebModule" style="rounded=0;whiteSpace=wrap;html=1;" vertex="1" parent="1">
          <mxGeometry x="10" y="628" width="340" height="32" as="geometry" />
        </mxCell>
        <mxCell id="bXI9zsy0QG3j4bNvQFsI-57" value="" style="endArrow=classic;startArrow=classic;html=1;rounded=0;entryX=0.107;entryY=-0.054;entryDx=0;entryDy=0;exitX=0.5;exitY=1;exitDx=0;exitDy=0;entryPerimeter=0;" edge="1" parent="1" source="bXI9zsy0QG3j4bNvQFsI-1" target="N6kJEQreYBYqL_7QNzlf-7">
          <mxGeometry width="50" height="50" relative="1" as="geometry">
            <mxPoint x="170" y="440" as="sourcePoint" />
            <mxPoint x="220" y="390" as="targetPoint" />
          </mxGeometry>
        </mxCell>
        <mxCell id="bXI9zsy0QG3j4bNvQFsI-58" value="REST API" style="edgeLabel;html=1;align=center;verticalAlign=middle;resizable=0;points=[];" connectable="0" vertex="1" parent="bXI9zsy0QG3j4bNvQFsI-57">
          <mxGeometry x="0.0062" y="-4" relative="1" as="geometry">
            <mxPoint x="3" y="-2" as="offset" />
          </mxGeometry>
        </mxCell>
        <mxCell id="bXI9zsy0QG3j4bNvQFsI-60" value="" style="rounded=1;whiteSpace=wrap;html=1;dashed=1;dashPattern=8 8;fillColor=none;arcSize=6;" vertex="1" parent="1">
          <mxGeometry x="410" y="615" width="440" height="75" as="geometry" />
        </mxCell>
        <mxCell id="bXI9zsy0QG3j4bNvQFsI-61" value="Frontend" style="text;html=1;align=left;verticalAlign=middle;whiteSpace=wrap;rounded=0;" vertex="1" parent="1">
          <mxGeometry x="416.5" y="668" width="60" height="16" as="geometry" />
        </mxCell>
        <mxCell id="bXI9zsy0QG3j4bNvQFsI-62" value="BricksWebModule" style="rounded=0;whiteSpace=wrap;html=1;" vertex="1" parent="1">
          <mxGeometry x="416.5" y="624" width="423.5" height="36" as="geometry" />
        </mxCell>
        <mxCell id="N6kJEQreYBYqL_7QNzlf-1" value="API Authentiction" style="rounded=0;whiteSpace=wrap;html=1;" vertex="1" parent="1">
          <mxGeometry x="20" y="480" width="820" height="30" as="geometry" />
        </mxCell>
        <mxCell id="N6kJEQreYBYqL_7QNzlf-3" value="" style="endArrow=classic;html=1;rounded=0;entryX=0.5;entryY=0;entryDx=0;entryDy=0;exitX=0.25;exitY=1;exitDx=0;exitDy=0;startArrow=classic;startFill=1;" edge="1" parent="1" source="N6kJEQreYBYqL_7QNzlf-7" target="bXI9zsy0QG3j4bNvQFsI-54">
          <mxGeometry width="50" height="50" relative="1" as="geometry">
            <mxPoint x="340" y="490" as="sourcePoint" />
            <mxPoint x="390" y="440" as="targetPoint" />
          </mxGeometry>
        </mxCell>
        <mxCell id="Mot-cv-8lSnlMY_KmX9s-3" value="REST API" style="edgeLabel;html=1;align=center;verticalAlign=middle;resizable=0;points=[];" connectable="0" vertex="1" parent="N6kJEQreYBYqL_7QNzlf-3">
          <mxGeometry x="-0.2617" y="-1" relative="1" as="geometry">
            <mxPoint as="offset" />
          </mxGeometry>
        </mxCell>
        <mxCell id="N6kJEQreYBYqL_7QNzlf-4" value="" style="endArrow=classic;html=1;rounded=0;entryX=0.5;entryY=0;entryDx=0;entryDy=0;exitX=0.672;exitY=1.016;exitDx=0;exitDy=0;startArrow=classic;startFill=1;exitPerimeter=0;" edge="1" parent="1" source="N6kJEQreYBYqL_7QNzlf-7" target="bXI9zsy0QG3j4bNvQFsI-60">
          <mxGeometry width="50" height="50" relative="1" as="geometry">
            <mxPoint x="480" y="490" as="sourcePoint" />
            <mxPoint x="530" y="440" as="targetPoint" />
          </mxGeometry>
        </mxCell>
        <mxCell id="Mot-cv-8lSnlMY_KmX9s-4" value="REST API" style="edgeLabel;html=1;align=center;verticalAlign=middle;resizable=0;points=[];" connectable="0" vertex="1" parent="N6kJEQreYBYqL_7QNzlf-4">
          <mxGeometry x="-0.0795" y="1" relative="1" as="geometry">
            <mxPoint as="offset" />
          </mxGeometry>
        </mxCell>
        <mxCell id="N6kJEQreYBYqL_7QNzlf-9" value="API&lt;span style=&quot;background-color: transparent; color: light-dark(rgb(0, 0, 0), rgb(255, 255, 255));&quot;&gt;&amp;nbsp;Package&lt;/span&gt;" style="text;html=1;align=left;verticalAlign=middle;whiteSpace=wrap;rounded=0;" vertex="1" parent="1">
          <mxGeometry x="18" y="516" width="117" height="20" as="geometry" />
        </mxCell>
        <mxCell id="AhsYS7P-cEnPHf2uuLv--1" value="" style="endArrow=classic;startArrow=classic;html=1;rounded=0;entryX=0.892;entryY=-0.008;entryDx=0;entryDy=0;exitX=0.75;exitY=1;exitDx=0;exitDy=0;entryPerimeter=0;" edge="1" parent="1" source="bXI9zsy0QG3j4bNvQFsI-22" target="N6kJEQreYBYqL_7QNzlf-7">
          <mxGeometry width="50" height="50" relative="1" as="geometry">
            <mxPoint x="190" y="318" as="sourcePoint" />
            <mxPoint x="350" y="365" as="targetPoint" />
          </mxGeometry>
        </mxCell>
        <mxCell id="AhsYS7P-cEnPHf2uuLv--2" value="REST API" style="edgeLabel;html=1;align=center;verticalAlign=middle;resizable=0;points=[];" connectable="0" vertex="1" parent="AhsYS7P-cEnPHf2uuLv--1">
          <mxGeometry x="0.0062" y="-4" relative="1" as="geometry">
            <mxPoint x="3" y="2" as="offset" />
          </mxGeometry>
        </mxCell>
        <mxCell id="_VB-eMSW8Fo6zwvyJEgW-1" value="" style="endArrow=classic;html=1;rounded=0;entryX=0.5;entryY=0;entryDx=0;entryDy=0;exitX=0.5;exitY=1;exitDx=0;exitDy=0;startArrow=classic;startFill=1;exitPerimeter=0;" edge="1" parent="1" source="bXI9zsy0QG3j4bNvQFsI-4" target="N6kJEQreYBYqL_7QNzlf-7">
          <mxGeometry width="50" height="50" relative="1" as="geometry">
            <mxPoint x="338" y="596" as="sourcePoint" />
            <mxPoint x="300" y="650" as="targetPoint" />
          </mxGeometry>
        </mxCell>
      </root>
    </mxGraphModel>
  </diagram>
  <diagram id="47v4bIVICXLJVeo_0zWQ" name="Iteration 2 (Performance)">
    <mxGraphModel grid="1" page="1" gridSize="10" guides="1" tooltips="1" connect="1" arrows="1" fold="1" pageScale="1" pageWidth="1169" pageHeight="827" math="0" shadow="0">
      <root>
        <mxCell id="0" />
        <mxCell id="1" parent="0" />
        <mxCell id="RiHtzSv0YIGyc8f_lQRk-1" value="" style="rounded=1;whiteSpace=wrap;html=1;dashed=1;dashPattern=8 8;fillColor=none;arcSize=6;" vertex="1" parent="1">
          <mxGeometry x="110" y="496.5" width="740" height="120" as="geometry" />
        </mxCell>
        <mxCell id="RiHtzSv0YIGyc8f_lQRk-2" value="" style="rounded=1;whiteSpace=wrap;html=1;dashed=1;dashPattern=8 8;fillColor=none;arcSize=6;" vertex="1" parent="1">
          <mxGeometry x="10" y="70" width="180" height="360" as="geometry" />
        </mxCell>
        <mxCell id="RiHtzSv0YIGyc8f_lQRk-3" value="" style="rounded=1;whiteSpace=wrap;html=1;dashed=1;dashPattern=8 8;fillColor=none;arcSize=6;" vertex="1" parent="1">
          <mxGeometry x="30" y="80" width="140" height="110" as="geometry" />
        </mxCell>
        <mxCell id="RiHtzSv0YIGyc8f_lQRk-5" value="KIP and Bricks School&lt;div&gt;DB&lt;/div&gt;" style="shape=cylinder3;whiteSpace=wrap;html=1;boundedLbl=1;backgroundOutline=1;size=15;" vertex="1" parent="1">
          <mxGeometry x="320" y="140" width="210" height="80" as="geometry" />
        </mxCell>
        <mxCell id="RiHtzSv0YIGyc8f_lQRk-11" value="KIP Package&lt;div&gt;&lt;font style=&quot;font-size: 10px;&quot;&gt;General scope&lt;/font&gt;&lt;/div&gt;" style="text;html=1;align=left;verticalAlign=middle;whiteSpace=wrap;rounded=0;" vertex="1" parent="1">
          <mxGeometry x="30" y="386" width="80" height="30" as="geometry" />
        </mxCell>
        <mxCell id="RiHtzSv0YIGyc8f_lQRk-12" value="" style="group" connectable="0" vertex="1" parent="1">
          <mxGeometry x="25" y="266" width="140" height="160" as="geometry" />
        </mxCell>
        <mxCell id="RiHtzSv0YIGyc8f_lQRk-13" value="" style="rounded=1;whiteSpace=wrap;html=1;dashed=1;dashPattern=8 8;fillColor=none;arcSize=6;" vertex="1" parent="RiHtzSv0YIGyc8f_lQRk-12">
          <mxGeometry y="-70" width="140" height="180" as="geometry" />
        </mxCell>
        <mxCell id="RiHtzSv0YIGyc8f_lQRk-15" value="StudentModule" style="rounded=0;whiteSpace=wrap;html=1;" vertex="1" parent="RiHtzSv0YIGyc8f_lQRk-12">
          <mxGeometry x="10" y="-6" width="120" height="40" as="geometry" />
        </mxCell>
        <mxCell id="RiHtzSv0YIGyc8f_lQRk-16" value="Business Package" style="text;html=1;align=left;verticalAlign=middle;whiteSpace=wrap;rounded=0;" vertex="1" parent="RiHtzSv0YIGyc8f_lQRk-12">
          <mxGeometry x="10" y="80" width="110" height="20" as="geometry" />
        </mxCell>
        <mxCell id="RiHtzSv0YIGyc8f_lQRk-17" value="" style="endArrow=classic;html=1;rounded=0;entryX=0;entryY=0.5;entryDx=0;entryDy=0;entryPerimeter=0;exitX=1;exitY=0.5;exitDx=0;exitDy=0;" edge="1" parent="1" source="RiHtzSv0YIGyc8f_lQRk-14" target="RiHtzSv0YIGyc8f_lQRk-5">
          <mxGeometry width="50" height="50" relative="1" as="geometry">
            <mxPoint x="160" y="40" as="sourcePoint" />
            <mxPoint x="250" y="210" as="targetPoint" />
          </mxGeometry>
        </mxCell>
        <mxCell id="RiHtzSv0YIGyc8f_lQRk-18" value="read/write" style="edgeLabel;html=1;align=center;verticalAlign=middle;resizable=0;points=[];" connectable="0" vertex="1" parent="RiHtzSv0YIGyc8f_lQRk-17">
          <mxGeometry x="0.1859" relative="1" as="geometry">
            <mxPoint as="offset" />
          </mxGeometry>
        </mxCell>
        <mxCell id="RiHtzSv0YIGyc8f_lQRk-19" value="" style="endArrow=classic;html=1;rounded=0;entryX=0;entryY=0.5;entryDx=0;entryDy=0;entryPerimeter=0;exitX=1;exitY=0.5;exitDx=0;exitDy=0;" edge="1" parent="1" source="RiHtzSv0YIGyc8f_lQRk-15" target="RiHtzSv0YIGyc8f_lQRk-5">
          <mxGeometry width="50" height="50" relative="1" as="geometry">
            <mxPoint x="160" y="110" as="sourcePoint" />
            <mxPoint x="250" y="210" as="targetPoint" />
          </mxGeometry>
        </mxCell>
        <mxCell id="RiHtzSv0YIGyc8f_lQRk-20" value="read" style="edgeLabel;html=1;align=center;verticalAlign=middle;resizable=0;points=[];" connectable="0" vertex="1" parent="RiHtzSv0YIGyc8f_lQRk-19">
          <mxGeometry x="0.1859" relative="1" as="geometry">
            <mxPoint as="offset" />
          </mxGeometry>
        </mxCell>
        <mxCell id="RiHtzSv0YIGyc8f_lQRk-21" value="" style="rounded=1;whiteSpace=wrap;html=1;dashed=1;dashPattern=8 8;fillColor=none;arcSize=6;" vertex="1" parent="1">
          <mxGeometry x="644" width="206" height="430" as="geometry" />
        </mxCell>
        <mxCell id="RiHtzSv0YIGyc8f_lQRk-22" value="BRICS School Package&lt;div&gt;&lt;font style=&quot;font-size: 10px;&quot;&gt;General scope&lt;/font&gt;&lt;/div&gt;" style="text;html=1;align=right;verticalAlign=middle;whiteSpace=wrap;rounded=0;" vertex="1" parent="1">
          <mxGeometry x="658" y="390" width="172" height="30" as="geometry" />
        </mxCell>
        <mxCell id="RiHtzSv0YIGyc8f_lQRk-23" value="RegistrationModule" style="rounded=0;whiteSpace=wrap;html=1;" vertex="1" parent="1">
          <mxGeometry x="35" y="100" width="120" height="40" as="geometry" />
        </mxCell>
        <mxCell id="RiHtzSv0YIGyc8f_lQRk-24" value="In\out Package" style="text;html=1;align=left;verticalAlign=middle;whiteSpace=wrap;rounded=0;" vertex="1" parent="1">
          <mxGeometry x="35" y="160" width="110" height="20" as="geometry" />
        </mxCell>
        <mxCell id="RiHtzSv0YIGyc8f_lQRk-25" value="" style="endArrow=classic;html=1;rounded=0;exitX=1;exitY=0.5;exitDx=0;exitDy=0;entryX=0;entryY=0.5;entryDx=0;entryDy=0;entryPerimeter=0;" edge="1" parent="1" source="RiHtzSv0YIGyc8f_lQRk-23" target="RiHtzSv0YIGyc8f_lQRk-5">
          <mxGeometry width="50" height="50" relative="1" as="geometry">
            <mxPoint x="160" y="50" as="sourcePoint" />
            <mxPoint x="420" y="230" as="targetPoint" />
          </mxGeometry>
        </mxCell>
        <mxCell id="RiHtzSv0YIGyc8f_lQRk-26" value="read/write" style="edgeLabel;html=1;align=center;verticalAlign=middle;resizable=0;points=[];" connectable="0" vertex="1" parent="RiHtzSv0YIGyc8f_lQRk-25">
          <mxGeometry x="0.1859" relative="1" as="geometry">
            <mxPoint as="offset" />
          </mxGeometry>
        </mxCell>
        <mxCell id="RiHtzSv0YIGyc8f_lQRk-27" value="" style="rounded=1;whiteSpace=wrap;html=1;dashed=1;dashPattern=8 8;fillColor=none;arcSize=6;" vertex="1" parent="1">
          <mxGeometry x="658" y="16" width="140" height="114" as="geometry" />
        </mxCell>
        <mxCell id="RiHtzSv0YIGyc8f_lQRk-28" value="RegistrationModule" style="rounded=0;whiteSpace=wrap;html=1;" vertex="1" parent="1">
          <mxGeometry x="673" y="40" width="120" height="40" as="geometry" />
        </mxCell>
        <mxCell id="RiHtzSv0YIGyc8f_lQRk-29" value="In\out Package" style="text;html=1;align=left;verticalAlign=middle;whiteSpace=wrap;rounded=0;" vertex="1" parent="1">
          <mxGeometry x="668" y="100" width="110" height="20" as="geometry" />
        </mxCell>
        <mxCell id="RiHtzSv0YIGyc8f_lQRk-30" value="" style="rounded=1;whiteSpace=wrap;html=1;dashed=1;dashPattern=8 8;fillColor=none;arcSize=6;" vertex="1" parent="1">
          <mxGeometry x="658" y="150" width="172" height="230" as="geometry" />
        </mxCell>
        <mxCell id="RiHtzSv0YIGyc8f_lQRk-31" value="" style="rounded=1;whiteSpace=wrap;html=1;dashed=1;dashPattern=8 8;fillColor=none;arcSize=6;" vertex="1" parent="1">
          <mxGeometry x="668" y="160" width="142" height="140" as="geometry" />
        </mxCell>
        <mxCell id="RiHtzSv0YIGyc8f_lQRk-32" value="CompetitionModule" style="rounded=0;whiteSpace=wrap;html=1;" vertex="1" parent="1">
          <mxGeometry x="678" y="172" width="120" height="40" as="geometry" />
        </mxCell>
        <mxCell id="RiHtzSv0YIGyc8f_lQRk-33" value="ParticipantModule" style="rounded=0;whiteSpace=wrap;html=1;" vertex="1" parent="1">
          <mxGeometry x="678" y="220" width="120" height="40" as="geometry" />
        </mxCell>
        <mxCell id="RiHtzSv0YIGyc8f_lQRk-34" value="Competiton Package" style="text;html=1;align=left;verticalAlign=middle;whiteSpace=wrap;rounded=0;" vertex="1" parent="1">
          <mxGeometry x="683" y="272" width="117" height="20" as="geometry" />
        </mxCell>
        <mxCell id="RiHtzSv0YIGyc8f_lQRk-35" value="CompanyModule" style="rounded=0;whiteSpace=wrap;html=1;" vertex="1" parent="1">
          <mxGeometry x="673" y="311" width="120" height="40" as="geometry" />
        </mxCell>
        <mxCell id="RiHtzSv0YIGyc8f_lQRk-36" value="Business Package" style="text;html=1;align=left;verticalAlign=middle;whiteSpace=wrap;rounded=0;" vertex="1" parent="1">
          <mxGeometry x="673" y="360" width="117" height="20" as="geometry" />
        </mxCell>
        <mxCell id="RiHtzSv0YIGyc8f_lQRk-37" value="" style="endArrow=classic;html=1;rounded=0;exitX=0;exitY=0.5;exitDx=0;exitDy=0;entryX=0.855;entryY=0;entryDx=0;entryDy=4.35;entryPerimeter=0;" edge="1" parent="1" source="RiHtzSv0YIGyc8f_lQRk-28" target="RiHtzSv0YIGyc8f_lQRk-5">
          <mxGeometry width="50" height="50" relative="1" as="geometry">
            <mxPoint x="599" y="30" as="sourcePoint" />
            <mxPoint x="435" y="150" as="targetPoint" />
          </mxGeometry>
        </mxCell>
        <mxCell id="RiHtzSv0YIGyc8f_lQRk-38" value="read/write" style="edgeLabel;html=1;align=center;verticalAlign=middle;resizable=0;points=[];" connectable="0" vertex="1" parent="RiHtzSv0YIGyc8f_lQRk-37">
          <mxGeometry x="0.1859" relative="1" as="geometry">
            <mxPoint as="offset" />
          </mxGeometry>
        </mxCell>
        <mxCell id="RiHtzSv0YIGyc8f_lQRk-39" value="" style="endArrow=classic;html=1;rounded=0;exitX=0;exitY=0.5;exitDx=0;exitDy=0;entryX=1;entryY=0.5;entryDx=0;entryDy=0;entryPerimeter=0;" edge="1" parent="1" source="RiHtzSv0YIGyc8f_lQRk-32" target="RiHtzSv0YIGyc8f_lQRk-5">
          <mxGeometry width="50" height="50" relative="1" as="geometry">
            <mxPoint x="599" y="80" as="sourcePoint" />
            <mxPoint x="510" y="154" as="targetPoint" />
          </mxGeometry>
        </mxCell>
        <mxCell id="RiHtzSv0YIGyc8f_lQRk-40" value="read/write" style="edgeLabel;html=1;align=center;verticalAlign=middle;resizable=0;points=[];" connectable="0" vertex="1" parent="RiHtzSv0YIGyc8f_lQRk-39">
          <mxGeometry x="0.1859" relative="1" as="geometry">
            <mxPoint as="offset" />
          </mxGeometry>
        </mxCell>
        <mxCell id="RiHtzSv0YIGyc8f_lQRk-41" value="" style="endArrow=classic;html=1;rounded=0;exitX=0;exitY=0.5;exitDx=0;exitDy=0;entryX=0.855;entryY=1;entryDx=0;entryDy=-4.35;entryPerimeter=0;" edge="1" parent="1" source="RiHtzSv0YIGyc8f_lQRk-33" target="RiHtzSv0YIGyc8f_lQRk-5">
          <mxGeometry width="50" height="50" relative="1" as="geometry">
            <mxPoint x="599" y="80" as="sourcePoint" />
            <mxPoint x="510" y="154" as="targetPoint" />
          </mxGeometry>
        </mxCell>
        <mxCell id="RiHtzSv0YIGyc8f_lQRk-42" value="read" style="edgeLabel;html=1;align=center;verticalAlign=middle;resizable=0;points=[];" connectable="0" vertex="1" parent="RiHtzSv0YIGyc8f_lQRk-41">
          <mxGeometry x="0.1859" relative="1" as="geometry">
            <mxPoint as="offset" />
          </mxGeometry>
        </mxCell>
        <mxCell id="RiHtzSv0YIGyc8f_lQRk-43" value="" style="endArrow=classic;html=1;rounded=0;exitX=0;exitY=0.75;exitDx=0;exitDy=0;entryX=0.855;entryY=1;entryDx=0;entryDy=-4.35;entryPerimeter=0;" edge="1" parent="1" source="RiHtzSv0YIGyc8f_lQRk-35" target="RiHtzSv0YIGyc8f_lQRk-5">
          <mxGeometry width="50" height="50" relative="1" as="geometry">
            <mxPoint x="609" y="260" as="sourcePoint" />
            <mxPoint x="510" y="226" as="targetPoint" />
          </mxGeometry>
        </mxCell>
        <mxCell id="RiHtzSv0YIGyc8f_lQRk-44" value="read" style="edgeLabel;html=1;align=center;verticalAlign=middle;resizable=0;points=[];" connectable="0" vertex="1" parent="RiHtzSv0YIGyc8f_lQRk-43">
          <mxGeometry x="0.1859" relative="1" as="geometry">
            <mxPoint as="offset" />
          </mxGeometry>
        </mxCell>
        <mxCell id="RiHtzSv0YIGyc8f_lQRk-52" value="" style="endArrow=classic;startArrow=classic;html=1;rounded=0;entryX=0.096;entryY=-0.07;entryDx=0;entryDy=0;exitX=0.75;exitY=1;exitDx=0;exitDy=0;entryPerimeter=0;" edge="1" parent="1" source="RiHtzSv0YIGyc8f_lQRk-2" target="jdIq0l1iVJvqGCZes4Dv-20">
          <mxGeometry width="50" height="50" relative="1" as="geometry">
            <mxPoint x="170" y="440" as="sourcePoint" />
            <mxPoint x="220" y="390" as="targetPoint" />
          </mxGeometry>
        </mxCell>
        <mxCell id="RiHtzSv0YIGyc8f_lQRk-53" value="REST API" style="edgeLabel;html=1;align=center;verticalAlign=middle;resizable=0;points=[];" connectable="0" vertex="1" parent="RiHtzSv0YIGyc8f_lQRk-52">
          <mxGeometry x="0.0062" y="-4" relative="1" as="geometry">
            <mxPoint x="3" y="-2" as="offset" />
          </mxGeometry>
        </mxCell>
        <mxCell id="RiHtzSv0YIGyc8f_lQRk-57" value="API Authentiction" style="rounded=0;whiteSpace=wrap;html=1;" vertex="1" parent="1">
          <mxGeometry x="130" y="566.5" width="710" height="30" as="geometry" />
        </mxCell>
        <mxCell id="RiHtzSv0YIGyc8f_lQRk-58" value="" style="endArrow=classic;html=1;rounded=0;entryX=0.5;entryY=0;entryDx=0;entryDy=0;exitX=0.25;exitY=1;exitDx=0;exitDy=0;startArrow=classic;startFill=1;" edge="1" parent="1" source="RiHtzSv0YIGyc8f_lQRk-1" target="jdIq0l1iVJvqGCZes4Dv-1">
          <mxGeometry width="50" height="50" relative="1" as="geometry">
            <mxPoint x="340" y="556.5" as="sourcePoint" />
            <mxPoint x="290" y="706.5" as="targetPoint" />
          </mxGeometry>
        </mxCell>
        <mxCell id="RiHtzSv0YIGyc8f_lQRk-59" value="" style="endArrow=classic;html=1;rounded=0;entryX=0.577;entryY=0.02;entryDx=0;entryDy=0;exitX=0.862;exitY=0.997;exitDx=0;exitDy=0;startArrow=classic;startFill=1;exitPerimeter=0;entryPerimeter=0;" edge="1" parent="1" source="RiHtzSv0YIGyc8f_lQRk-1" target="jdIq0l1iVJvqGCZes4Dv-4">
          <mxGeometry width="50" height="50" relative="1" as="geometry">
            <mxPoint x="480" y="556.5" as="sourcePoint" />
            <mxPoint x="476.5" y="721.5" as="targetPoint" />
          </mxGeometry>
        </mxCell>
        <mxCell id="RiHtzSv0YIGyc8f_lQRk-60" value="API&lt;span style=&quot;background-color: transparent; color: light-dark(rgb(0, 0, 0), rgb(255, 255, 255));&quot;&gt;&amp;nbsp;Package&lt;/span&gt;" style="text;html=1;align=left;verticalAlign=middle;whiteSpace=wrap;rounded=0;" vertex="1" parent="1">
          <mxGeometry x="123" y="596.5" width="117" height="20" as="geometry" />
        </mxCell>
        <mxCell id="RiHtzSv0YIGyc8f_lQRk-61" value="" style="endArrow=classic;startArrow=classic;html=1;rounded=0;entryX=0.869;entryY=0.005;entryDx=0;entryDy=0;exitX=0.5;exitY=1;exitDx=0;exitDy=0;entryPerimeter=0;" edge="1" parent="1" source="RiHtzSv0YIGyc8f_lQRk-21" target="jdIq0l1iVJvqGCZes4Dv-20">
          <mxGeometry width="50" height="50" relative="1" as="geometry">
            <mxPoint x="190" y="318" as="sourcePoint" />
            <mxPoint x="350" y="365" as="targetPoint" />
          </mxGeometry>
        </mxCell>
        <mxCell id="RiHtzSv0YIGyc8f_lQRk-62" value="REST API" style="edgeLabel;html=1;align=center;verticalAlign=middle;resizable=0;points=[];" connectable="0" vertex="1" parent="RiHtzSv0YIGyc8f_lQRk-61">
          <mxGeometry x="0.0062" y="-4" relative="1" as="geometry">
            <mxPoint x="3" y="2" as="offset" />
          </mxGeometry>
        </mxCell>
        <mxCell id="RiHtzSv0YIGyc8f_lQRk-63" value="" style="endArrow=classic;html=1;rounded=0;entryX=0.414;entryY=0.039;entryDx=0;entryDy=0;exitX=0.5;exitY=1;exitDx=0;exitDy=0;startArrow=classic;startFill=1;exitPerimeter=0;entryPerimeter=0;" edge="1" parent="1" source="RiHtzSv0YIGyc8f_lQRk-5" target="jdIq0l1iVJvqGCZes4Dv-20">
          <mxGeometry width="50" height="50" relative="1" as="geometry">
            <mxPoint x="338" y="596" as="sourcePoint" />
            <mxPoint x="300" y="650" as="targetPoint" />
          </mxGeometry>
        </mxCell>
        <mxCell id="jdIq0l1iVJvqGCZes4Dv-1" value="" style="rounded=1;whiteSpace=wrap;html=1;dashed=1;dashPattern=8 8;fillColor=none;arcSize=6;" vertex="1" parent="1">
          <mxGeometry x="110" y="646.5" width="380" height="70" as="geometry" />
        </mxCell>
        <mxCell id="jdIq0l1iVJvqGCZes4Dv-2" value="KIP Frontend" style="text;html=1;align=left;verticalAlign=middle;whiteSpace=wrap;rounded=0;" vertex="1" parent="1">
          <mxGeometry x="123" y="696.5" width="357" height="16" as="geometry" />
        </mxCell>
        <mxCell id="jdIq0l1iVJvqGCZes4Dv-3" value="KIP UI" style="rounded=0;whiteSpace=wrap;html=1;" vertex="1" parent="1">
          <mxGeometry x="130" y="659.5" width="350" height="32" as="geometry" />
        </mxCell>
        <mxCell id="jdIq0l1iVJvqGCZes4Dv-4" value="" style="rounded=1;whiteSpace=wrap;html=1;dashed=1;dashPattern=8 8;fillColor=none;arcSize=6;" vertex="1" parent="1">
          <mxGeometry x="520" y="646.5" width="330" height="70" as="geometry" />
        </mxCell>
        <mxCell id="jdIq0l1iVJvqGCZes4Dv-5" value="&lt;span style=&quot;text-align: center;&quot;&gt;BRICS School UI&lt;/span&gt;&amp;nbsp;Frontend" style="text;html=1;align=right;verticalAlign=middle;whiteSpace=wrap;rounded=0;" vertex="1" parent="1">
          <mxGeometry x="540" y="696.5" width="300" height="16" as="geometry" />
        </mxCell>
        <mxCell id="jdIq0l1iVJvqGCZes4Dv-6" value="BRICS School UI" style="rounded=0;whiteSpace=wrap;html=1;" vertex="1" parent="1">
          <mxGeometry x="530" y="655.5" width="310" height="36" as="geometry" />
        </mxCell>
        <mxCell id="jdIq0l1iVJvqGCZes4Dv-7" value="" style="rounded=0;whiteSpace=wrap;html=1;fillColor=none;" vertex="1" parent="1">
          <mxGeometry x="880" width="200" height="440" as="geometry" />
        </mxCell>
        <mxCell id="jdIq0l1iVJvqGCZes4Dv-8" value="" style="rounded=1;whiteSpace=wrap;html=1;dashed=1;dashPattern=8 8;fillColor=none;arcSize=6;" vertex="1" parent="1">
          <mxGeometry x="889" y="70" width="91" height="90" as="geometry" />
        </mxCell>
        <mxCell id="jdIq0l1iVJvqGCZes4Dv-9" value="Legend:" style="text;html=1;align=center;verticalAlign=middle;resizable=0;points=[];autosize=1;strokeColor=none;fillColor=none;" vertex="1" parent="1">
          <mxGeometry x="880" y="10" width="70" height="30" as="geometry" />
        </mxCell>
        <mxCell id="jdIq0l1iVJvqGCZes4Dv-10" value="Package&lt;div&gt;Name&lt;/div&gt;" style="text;html=1;align=left;verticalAlign=middle;whiteSpace=wrap;rounded=0;" vertex="1" parent="1">
          <mxGeometry x="899" y="132" width="127" height="26.75" as="geometry" />
        </mxCell>
        <mxCell id="jdIq0l1iVJvqGCZes4Dv-11" value="Packege" style="text;html=1;align=center;verticalAlign=middle;resizable=0;points=[];autosize=1;strokeColor=none;fillColor=none;" vertex="1" parent="1">
          <mxGeometry x="1007" y="99" width="70" height="30" as="geometry" />
        </mxCell>
        <mxCell id="jdIq0l1iVJvqGCZes4Dv-12" value="Module Name" style="rounded=0;whiteSpace=wrap;html=1;" vertex="1" parent="1">
          <mxGeometry x="889" y="185" width="91" height="40" as="geometry" />
        </mxCell>
        <mxCell id="jdIq0l1iVJvqGCZes4Dv-13" value="Module" style="text;html=1;align=center;verticalAlign=middle;resizable=0;points=[];autosize=1;strokeColor=none;fillColor=none;" vertex="1" parent="1">
          <mxGeometry x="1016" y="190" width="60" height="30" as="geometry" />
        </mxCell>
        <mxCell id="jdIq0l1iVJvqGCZes4Dv-14" value="" style="endArrow=classic;html=1;rounded=0;" edge="1" parent="1">
          <mxGeometry width="50" height="50" relative="1" as="geometry">
            <mxPoint x="889" y="259.5" as="sourcePoint" />
            <mxPoint x="970" y="260" as="targetPoint" />
          </mxGeometry>
        </mxCell>
        <mxCell id="jdIq0l1iVJvqGCZes4Dv-15" value="request type" style="edgeLabel;html=1;align=center;verticalAlign=middle;resizable=0;points=[];" vertex="1" connectable="0" parent="jdIq0l1iVJvqGCZes4Dv-14">
          <mxGeometry x="-0.1409" y="1" relative="1" as="geometry">
            <mxPoint x="3" as="offset" />
          </mxGeometry>
        </mxCell>
        <mxCell id="jdIq0l1iVJvqGCZes4Dv-16" value="Request" style="text;html=1;align=center;verticalAlign=middle;resizable=0;points=[];autosize=1;strokeColor=none;fillColor=none;" vertex="1" parent="1">
          <mxGeometry x="1007" y="245" width="70" height="30" as="geometry" />
        </mxCell>
        <mxCell id="jdIq0l1iVJvqGCZes4Dv-17" value="&lt;div&gt;DB&lt;/div&gt;" style="shape=cylinder3;whiteSpace=wrap;html=1;boundedLbl=1;backgroundOutline=1;size=15;" vertex="1" parent="1">
          <mxGeometry x="889" y="286" width="71" height="80" as="geometry" />
        </mxCell>
        <mxCell id="jdIq0l1iVJvqGCZes4Dv-18" value="Database" style="text;html=1;align=center;verticalAlign=middle;resizable=0;points=[];autosize=1;strokeColor=none;fillColor=none;" vertex="1" parent="1">
          <mxGeometry x="1009" y="316" width="70" height="30" as="geometry" />
        </mxCell>
        <mxCell id="RiHtzSv0YIGyc8f_lQRk-67" value="Log Module" style="rounded=0;whiteSpace=wrap;html=1;dashed=1;dashPattern=1 4;" vertex="1" parent="1">
          <mxGeometry x="245" y="316" width="120" height="60" as="geometry" />
        </mxCell>
        <mxCell id="RiHtzSv0YIGyc8f_lQRk-68" value="" style="endArrow=classic;html=1;rounded=0;entryX=0.145;entryY=1;entryDx=0;entryDy=-4.35;entryPerimeter=0;dashed=1;dashPattern=1 4;exitX=0.5;exitY=0;exitDx=0;exitDy=0;" edge="1" parent="1" source="RiHtzSv0YIGyc8f_lQRk-67">
          <mxGeometry width="50" height="50" relative="1" as="geometry">
            <mxPoint x="300" y="280" as="sourcePoint" />
            <mxPoint x="350" y="216" as="targetPoint" />
          </mxGeometry>
        </mxCell>
        <mxCell id="RiHtzSv0YIGyc8f_lQRk-69" value="" style="endArrow=classic;html=1;rounded=0;entryX=0.5;entryY=1;entryDx=0;entryDy=0;dashed=1;dashPattern=1 4;exitX=0.25;exitY=0;exitDx=0;exitDy=0;" edge="1" parent="1" source="jdIq0l1iVJvqGCZes4Dv-20" target="RiHtzSv0YIGyc8f_lQRk-67">
          <mxGeometry width="50" height="50" relative="1" as="geometry">
            <mxPoint x="300" y="450" as="sourcePoint" />
            <mxPoint x="330" y="420" as="targetPoint" />
          </mxGeometry>
        </mxCell>
        <mxCell id="RiHtzSv0YIGyc8f_lQRk-70" value="" style="endArrow=none;dashed=1;html=1;dashPattern=1 3;strokeWidth=2;rounded=0;" edge="1" parent="1">
          <mxGeometry width="50" height="50" relative="1" as="geometry">
            <mxPoint x="910" y="430" as="sourcePoint" />
            <mxPoint x="950" y="380" as="targetPoint" />
          </mxGeometry>
        </mxCell>
        <mxCell id="RiHtzSv0YIGyc8f_lQRk-71" value="we need&amp;nbsp;&lt;div&gt;to think&amp;nbsp;&lt;div&gt;about&lt;/div&gt;&lt;div&gt;&amp;nbsp;that part.&lt;/div&gt;&lt;/div&gt;" style="text;html=1;align=center;verticalAlign=middle;resizable=0;points=[];autosize=1;strokeColor=none;fillColor=none;" vertex="1" parent="1">
          <mxGeometry x="1000" y="366" width="70" height="70" as="geometry" />
        </mxCell>
        <mxCell id="jdIq0l1iVJvqGCZes4Dv-21" style="edgeStyle=orthogonalEdgeStyle;rounded=0;orthogonalLoop=1;jettySize=auto;html=1;exitX=0.5;exitY=1;exitDx=0;exitDy=0;entryX=0.5;entryY=0;entryDx=0;entryDy=0;startArrow=classic;startFill=1;" edge="1" parent="1" source="jdIq0l1iVJvqGCZes4Dv-20" target="RiHtzSv0YIGyc8f_lQRk-57">
          <mxGeometry relative="1" as="geometry" />
        </mxCell>
        <mxCell id="jdIq0l1iVJvqGCZes4Dv-20" value="API Router" style="rounded=0;whiteSpace=wrap;html=1;" vertex="1" parent="1">
          <mxGeometry x="130" y="510.5" width="710" height="30" as="geometry" />
        </mxCell>
        <mxCell id="jdIq0l1iVJvqGCZes4Dv-22" value="" style="edgeStyle=orthogonalEdgeStyle;rounded=0;orthogonalLoop=1;jettySize=auto;html=1;startArrow=classic;startFill=1;endArrow=classic;endFill=1;dashed=1;" edge="1" parent="1" source="RiHtzSv0YIGyc8f_lQRk-78" target="jdIq0l1iVJvqGCZes4Dv-20">
          <mxGeometry relative="1" as="geometry" />
        </mxCell>
        <mxCell id="RiHtzSv0YIGyc8f_lQRk-78" value="Cache" style="shape=cylinder3;whiteSpace=wrap;html=1;boundedLbl=1;backgroundOutline=1;size=15;dashed=1;dashPattern=1 4;" vertex="1" parent="1">
          <mxGeometry y="480" width="70" height="91" as="geometry" />
        </mxCell>
        <mxCell id="RiHtzSv0YIGyc8f_lQRk-14" value="GemificationModule" style="rounded=0;whiteSpace=wrap;html=1;" vertex="1" parent="1">
          <mxGeometry x="35" y="210" width="120" height="40" as="geometry" />
        </mxCell>
      </root>
    </mxGraphModel>
  </diagram>
  <diagram id="FDUdtyV3n86IX2dIVc5k" name="iteration 3 (Maintainability)">
    <mxGraphModel grid="1" page="1" gridSize="10" guides="1" tooltips="1" connect="1" arrows="1" fold="1" pageScale="1" pageWidth="1169" pageHeight="827" math="0" shadow="0">
      <root>
        <mxCell id="0" />
        <mxCell id="1" parent="0" />
        <mxCell id="XjmhYz4xHQ0g7yBsy22V-1" value="" style="rounded=1;whiteSpace=wrap;html=1;dashed=1;dashPattern=8 8;fillColor=none;arcSize=6;" vertex="1" parent="1">
          <mxGeometry x="153" y="469.5" width="740" height="120" as="geometry" />
        </mxCell>
        <mxCell id="XjmhYz4xHQ0g7yBsy22V-2" value="" style="rounded=1;whiteSpace=wrap;html=1;dashed=1;dashPattern=8 8;fillColor=none;arcSize=6;" vertex="1" parent="1">
          <mxGeometry x="153" y="90" width="177" height="313" as="geometry" />
        </mxCell>
        <mxCell id="XjmhYz4xHQ0g7yBsy22V-3" value="" style="rounded=1;whiteSpace=wrap;html=1;dashed=1;dashPattern=8 8;fillColor=none;arcSize=6;" vertex="1" parent="1">
          <mxGeometry x="168" y="103" width="140" height="80" as="geometry" />
        </mxCell>
        <mxCell id="XjmhYz4xHQ0g7yBsy22V-4" value="KIP and Bricks School&lt;div&gt;DB&lt;/div&gt;" style="shape=cylinder3;whiteSpace=wrap;html=1;boundedLbl=1;backgroundOutline=1;size=15;" vertex="1" parent="1">
          <mxGeometry x="443" y="205" width="140" height="80" as="geometry" />
        </mxCell>
        <mxCell id="XjmhYz4xHQ0g7yBsy22V-5" value="KIP Package&lt;div&gt;&lt;font style=&quot;font-size: 10px;&quot;&gt;General scope&lt;/font&gt;&lt;/div&gt;" style="text;html=1;align=left;verticalAlign=middle;whiteSpace=wrap;rounded=0;" vertex="1" parent="1">
          <mxGeometry x="169" y="362" width="80" height="30" as="geometry" />
        </mxCell>
        <mxCell id="XjmhYz4xHQ0g7yBsy22V-6" value="" style="group" connectable="0" vertex="1" parent="1">
          <mxGeometry x="168" y="239" width="140" height="160" as="geometry" />
        </mxCell>
        <mxCell id="XjmhYz4xHQ0g7yBsy22V-7" value="" style="rounded=1;whiteSpace=wrap;html=1;dashed=1;dashPattern=8 8;fillColor=none;arcSize=6;" vertex="1" parent="XjmhYz4xHQ0g7yBsy22V-6">
          <mxGeometry y="-40" width="140" height="150" as="geometry" />
        </mxCell>
        <mxCell id="XjmhYz4xHQ0g7yBsy22V-8" value="StudentModule" style="rounded=0;whiteSpace=wrap;html=1;" vertex="1" parent="XjmhYz4xHQ0g7yBsy22V-6">
          <mxGeometry x="10" y="30" width="120" height="40" as="geometry" />
        </mxCell>
        <mxCell id="XjmhYz4xHQ0g7yBsy22V-9" value="Business Package" style="text;html=1;align=left;verticalAlign=middle;whiteSpace=wrap;rounded=0;" vertex="1" parent="XjmhYz4xHQ0g7yBsy22V-6">
          <mxGeometry x="10" y="80" width="110" height="20" as="geometry" />
        </mxCell>
        <mxCell id="XjmhYz4xHQ0g7yBsy22V-10" value="" style="endArrow=classic;html=1;rounded=0;entryX=0;entryY=0;entryDx=0;entryDy=52.5;entryPerimeter=0;exitX=1;exitY=0.5;exitDx=0;exitDy=0;" edge="1" parent="1" source="XjmhYz4xHQ0g7yBsy22V-74" target="XjmhYz4xHQ0g7yBsy22V-4">
          <mxGeometry width="50" height="50" relative="1" as="geometry">
            <mxPoint x="203" y="13" as="sourcePoint" />
            <mxPoint x="293" y="183" as="targetPoint" />
          </mxGeometry>
        </mxCell>
        <mxCell id="XjmhYz4xHQ0g7yBsy22V-11" value="read/write" style="edgeLabel;html=1;align=center;verticalAlign=middle;resizable=0;points=[];" connectable="0" vertex="1" parent="XjmhYz4xHQ0g7yBsy22V-10">
          <mxGeometry x="0.1859" relative="1" as="geometry">
            <mxPoint as="offset" />
          </mxGeometry>
        </mxCell>
        <mxCell id="XjmhYz4xHQ0g7yBsy22V-12" value="" style="endArrow=classic;html=1;rounded=0;entryX=0;entryY=1;entryDx=0;entryDy=-15;entryPerimeter=0;exitX=1;exitY=0.5;exitDx=0;exitDy=0;" edge="1" parent="1" source="XjmhYz4xHQ0g7yBsy22V-8" target="XjmhYz4xHQ0g7yBsy22V-4">
          <mxGeometry width="50" height="50" relative="1" as="geometry">
            <mxPoint x="203" y="83" as="sourcePoint" />
            <mxPoint x="293" y="183" as="targetPoint" />
          </mxGeometry>
        </mxCell>
        <mxCell id="XjmhYz4xHQ0g7yBsy22V-13" value="read" style="edgeLabel;html=1;align=center;verticalAlign=middle;resizable=0;points=[];" connectable="0" vertex="1" parent="XjmhYz4xHQ0g7yBsy22V-12">
          <mxGeometry x="0.1859" relative="1" as="geometry">
            <mxPoint as="offset" />
          </mxGeometry>
        </mxCell>
        <mxCell id="XjmhYz4xHQ0g7yBsy22V-14" value="" style="rounded=1;whiteSpace=wrap;html=1;dashed=1;dashPattern=8 8;fillColor=none;arcSize=6;" vertex="1" parent="1">
          <mxGeometry x="707" y="43" width="186" height="360" as="geometry" />
        </mxCell>
        <mxCell id="XjmhYz4xHQ0g7yBsy22V-15" value="BRICS School Package&lt;div&gt;&lt;font style=&quot;font-size: 10px;&quot;&gt;General scope&lt;/font&gt;&lt;/div&gt;" style="text;html=1;align=right;verticalAlign=middle;whiteSpace=wrap;rounded=0;" vertex="1" parent="1">
          <mxGeometry x="713" y="367" width="171" height="30" as="geometry" />
        </mxCell>
        <mxCell id="XjmhYz4xHQ0g7yBsy22V-16" value="RegistrationModule" style="rounded=0;whiteSpace=wrap;html=1;" vertex="1" parent="1">
          <mxGeometry x="178" y="113" width="120" height="40" as="geometry" />
        </mxCell>
        <mxCell id="XjmhYz4xHQ0g7yBsy22V-17" value="In\out Package" style="text;html=1;align=left;verticalAlign=middle;whiteSpace=wrap;rounded=0;" vertex="1" parent="1">
          <mxGeometry x="178" y="158" width="110" height="20" as="geometry" />
        </mxCell>
        <mxCell id="XjmhYz4xHQ0g7yBsy22V-18" value="" style="endArrow=classic;html=1;rounded=0;exitX=1;exitY=0.5;exitDx=0;exitDy=0;entryX=0;entryY=0.5;entryDx=0;entryDy=0;entryPerimeter=0;" edge="1" parent="1" source="XjmhYz4xHQ0g7yBsy22V-16" target="XjmhYz4xHQ0g7yBsy22V-4">
          <mxGeometry width="50" height="50" relative="1" as="geometry">
            <mxPoint x="203" y="23" as="sourcePoint" />
            <mxPoint x="463" y="203" as="targetPoint" />
          </mxGeometry>
        </mxCell>
        <mxCell id="XjmhYz4xHQ0g7yBsy22V-19" value="read/write" style="edgeLabel;html=1;align=center;verticalAlign=middle;resizable=0;points=[];" connectable="0" vertex="1" parent="XjmhYz4xHQ0g7yBsy22V-18">
          <mxGeometry x="0.1859" relative="1" as="geometry">
            <mxPoint as="offset" />
          </mxGeometry>
        </mxCell>
        <mxCell id="XjmhYz4xHQ0g7yBsy22V-20" value="" style="rounded=1;whiteSpace=wrap;html=1;dashed=1;dashPattern=8 8;fillColor=none;arcSize=6;" vertex="1" parent="1">
          <mxGeometry x="721" y="50" width="162" height="70" as="geometry" />
        </mxCell>
        <mxCell id="XjmhYz4xHQ0g7yBsy22V-21" value="RegistrationModule" style="rounded=0;whiteSpace=wrap;html=1;" vertex="1" parent="1">
          <mxGeometry x="733" y="57" width="137" height="40" as="geometry" />
        </mxCell>
        <mxCell id="XjmhYz4xHQ0g7yBsy22V-22" value="In\out Package" style="text;html=1;align=right;verticalAlign=middle;whiteSpace=wrap;rounded=0;" vertex="1" parent="1">
          <mxGeometry x="731" y="99" width="142" height="20" as="geometry" />
        </mxCell>
        <mxCell id="XjmhYz4xHQ0g7yBsy22V-23" value="" style="rounded=1;whiteSpace=wrap;html=1;dashed=1;dashPattern=8 8;fillColor=none;arcSize=6;" vertex="1" parent="1">
          <mxGeometry x="721" y="135" width="162" height="220" as="geometry" />
        </mxCell>
        <mxCell id="XjmhYz4xHQ0g7yBsy22V-24" value="" style="rounded=1;whiteSpace=wrap;html=1;dashed=1;dashPattern=8 8;fillColor=none;arcSize=6;" vertex="1" parent="1">
          <mxGeometry x="731" y="146" width="142" height="130" as="geometry" />
        </mxCell>
        <mxCell id="XjmhYz4xHQ0g7yBsy22V-25" value="CompetitionModule" style="rounded=0;whiteSpace=wrap;html=1;" vertex="1" parent="1">
          <mxGeometry x="741" y="155" width="120" height="40" as="geometry" />
        </mxCell>
        <mxCell id="XjmhYz4xHQ0g7yBsy22V-26" value="ParticipantModule" style="rounded=0;whiteSpace=wrap;html=1;" vertex="1" parent="1">
          <mxGeometry x="741" y="203" width="120" height="40" as="geometry" />
        </mxCell>
        <mxCell id="XjmhYz4xHQ0g7yBsy22V-27" value="Competiton Package" style="text;html=1;align=right;verticalAlign=middle;whiteSpace=wrap;rounded=0;" vertex="1" parent="1">
          <mxGeometry x="737" y="255" width="130" height="20" as="geometry" />
        </mxCell>
        <mxCell id="XjmhYz4xHQ0g7yBsy22V-28" value="CompanyModule" style="rounded=0;whiteSpace=wrap;html=1;" vertex="1" parent="1">
          <mxGeometry x="736" y="289" width="120" height="40" as="geometry" />
        </mxCell>
        <mxCell id="XjmhYz4xHQ0g7yBsy22V-29" value="Business Package" style="text;html=1;align=right;verticalAlign=middle;whiteSpace=wrap;rounded=0;" vertex="1" parent="1">
          <mxGeometry x="736" y="333" width="137" height="20" as="geometry" />
        </mxCell>
        <mxCell id="XjmhYz4xHQ0g7yBsy22V-30" value="" style="endArrow=classic;html=1;rounded=0;exitX=0;exitY=0.5;exitDx=0;exitDy=0;entryX=0.855;entryY=0;entryDx=0;entryDy=4.35;entryPerimeter=0;" edge="1" parent="1" source="XjmhYz4xHQ0g7yBsy22V-21" target="XjmhYz4xHQ0g7yBsy22V-4">
          <mxGeometry width="50" height="50" relative="1" as="geometry">
            <mxPoint x="642" y="3" as="sourcePoint" />
            <mxPoint x="478" y="123" as="targetPoint" />
          </mxGeometry>
        </mxCell>
        <mxCell id="XjmhYz4xHQ0g7yBsy22V-31" value="read/write" style="edgeLabel;html=1;align=center;verticalAlign=middle;resizable=0;points=[];" connectable="0" vertex="1" parent="XjmhYz4xHQ0g7yBsy22V-30">
          <mxGeometry x="0.1859" relative="1" as="geometry">
            <mxPoint as="offset" />
          </mxGeometry>
        </mxCell>
        <mxCell id="XjmhYz4xHQ0g7yBsy22V-32" value="" style="endArrow=classic;html=1;rounded=0;exitX=0;exitY=0.5;exitDx=0;exitDy=0;entryX=1;entryY=0.5;entryDx=0;entryDy=0;entryPerimeter=0;" edge="1" parent="1" source="XjmhYz4xHQ0g7yBsy22V-25" target="XjmhYz4xHQ0g7yBsy22V-4">
          <mxGeometry width="50" height="50" relative="1" as="geometry">
            <mxPoint x="642" y="53" as="sourcePoint" />
            <mxPoint x="553" y="127" as="targetPoint" />
          </mxGeometry>
        </mxCell>
        <mxCell id="XjmhYz4xHQ0g7yBsy22V-33" value="read/write" style="edgeLabel;html=1;align=center;verticalAlign=middle;resizable=0;points=[];" connectable="0" vertex="1" parent="XjmhYz4xHQ0g7yBsy22V-32">
          <mxGeometry x="0.1859" relative="1" as="geometry">
            <mxPoint as="offset" />
          </mxGeometry>
        </mxCell>
        <mxCell id="XjmhYz4xHQ0g7yBsy22V-34" value="" style="endArrow=classic;html=1;rounded=0;exitX=0;exitY=0.5;exitDx=0;exitDy=0;entryX=1;entryY=1;entryDx=0;entryDy=-15;entryPerimeter=0;" edge="1" parent="1" source="XjmhYz4xHQ0g7yBsy22V-26" target="XjmhYz4xHQ0g7yBsy22V-4">
          <mxGeometry width="50" height="50" relative="1" as="geometry">
            <mxPoint x="642" y="53" as="sourcePoint" />
            <mxPoint x="553" y="127" as="targetPoint" />
          </mxGeometry>
        </mxCell>
        <mxCell id="XjmhYz4xHQ0g7yBsy22V-35" value="read" style="edgeLabel;html=1;align=center;verticalAlign=middle;resizable=0;points=[];" connectable="0" vertex="1" parent="XjmhYz4xHQ0g7yBsy22V-34">
          <mxGeometry x="0.1859" relative="1" as="geometry">
            <mxPoint as="offset" />
          </mxGeometry>
        </mxCell>
        <mxCell id="XjmhYz4xHQ0g7yBsy22V-36" value="" style="endArrow=classic;html=1;rounded=0;exitX=0;exitY=0.75;exitDx=0;exitDy=0;entryX=0.855;entryY=1;entryDx=0;entryDy=-4.35;entryPerimeter=0;" edge="1" parent="1" source="XjmhYz4xHQ0g7yBsy22V-28" target="XjmhYz4xHQ0g7yBsy22V-4">
          <mxGeometry width="50" height="50" relative="1" as="geometry">
            <mxPoint x="652" y="233" as="sourcePoint" />
            <mxPoint x="553" y="199" as="targetPoint" />
          </mxGeometry>
        </mxCell>
        <mxCell id="XjmhYz4xHQ0g7yBsy22V-37" value="read" style="edgeLabel;html=1;align=center;verticalAlign=middle;resizable=0;points=[];" connectable="0" vertex="1" parent="XjmhYz4xHQ0g7yBsy22V-36">
          <mxGeometry x="0.1859" relative="1" as="geometry">
            <mxPoint as="offset" />
          </mxGeometry>
        </mxCell>
        <mxCell id="XjmhYz4xHQ0g7yBsy22V-38" value="" style="endArrow=classic;startArrow=classic;html=1;rounded=0;entryX=0.096;entryY=-0.07;entryDx=0;entryDy=0;exitX=0.5;exitY=1;exitDx=0;exitDy=0;entryPerimeter=0;" edge="1" parent="1" source="XjmhYz4xHQ0g7yBsy22V-2" target="XjmhYz4xHQ0g7yBsy22V-71">
          <mxGeometry width="50" height="50" relative="1" as="geometry">
            <mxPoint x="213" y="413" as="sourcePoint" />
            <mxPoint x="263" y="363" as="targetPoint" />
          </mxGeometry>
        </mxCell>
        <mxCell id="XjmhYz4xHQ0g7yBsy22V-39" value="REST API" style="edgeLabel;html=1;align=center;verticalAlign=middle;resizable=0;points=[];" connectable="0" vertex="1" parent="XjmhYz4xHQ0g7yBsy22V-38">
          <mxGeometry x="0.0062" y="-4" relative="1" as="geometry">
            <mxPoint x="3" y="-2" as="offset" />
          </mxGeometry>
        </mxCell>
        <mxCell id="XjmhYz4xHQ0g7yBsy22V-40" value="API Authentiction" style="rounded=0;whiteSpace=wrap;html=1;" vertex="1" parent="1">
          <mxGeometry x="173" y="534.5" width="710" height="30" as="geometry" />
        </mxCell>
        <mxCell id="XjmhYz4xHQ0g7yBsy22V-41" value="" style="endArrow=classic;html=1;rounded=0;entryX=0.5;entryY=0;entryDx=0;entryDy=0;startArrow=classic;startFill=1;" edge="1" parent="1" target="XjmhYz4xHQ0g7yBsy22V-47">
          <mxGeometry width="50" height="50" relative="1" as="geometry">
            <mxPoint x="333" y="590" as="sourcePoint" />
            <mxPoint x="333" y="679.5" as="targetPoint" />
          </mxGeometry>
        </mxCell>
        <mxCell id="ew9Zyq1ydCr5Sf9a5HGO-1" value="REST API" style="edgeLabel;html=1;align=center;verticalAlign=middle;resizable=0;points=[];" connectable="0" vertex="1" parent="XjmhYz4xHQ0g7yBsy22V-41">
          <mxGeometry x="0.0205" y="-4" relative="1" as="geometry">
            <mxPoint x="1" y="3" as="offset" />
          </mxGeometry>
        </mxCell>
        <mxCell id="XjmhYz4xHQ0g7yBsy22V-42" value="" style="endArrow=classic;html=1;rounded=0;entryX=0.577;entryY=0.02;entryDx=0;entryDy=0;exitX=0.803;exitY=1.027;exitDx=0;exitDy=0;startArrow=classic;startFill=1;exitPerimeter=0;entryPerimeter=0;" edge="1" parent="1" source="XjmhYz4xHQ0g7yBsy22V-1" target="XjmhYz4xHQ0g7yBsy22V-50">
          <mxGeometry width="50" height="50" relative="1" as="geometry">
            <mxPoint x="523" y="529.5" as="sourcePoint" />
            <mxPoint x="519.5" y="694.5" as="targetPoint" />
          </mxGeometry>
        </mxCell>
        <mxCell id="ew9Zyq1ydCr5Sf9a5HGO-2" value="REST API" style="edgeLabel;html=1;align=center;verticalAlign=middle;resizable=0;points=[];" connectable="0" vertex="1" parent="XjmhYz4xHQ0g7yBsy22V-42">
          <mxGeometry x="-0.0436" y="2" relative="1" as="geometry">
            <mxPoint y="2" as="offset" />
          </mxGeometry>
        </mxCell>
        <mxCell id="XjmhYz4xHQ0g7yBsy22V-43" value="API&lt;span style=&quot;background-color: transparent; color: light-dark(rgb(0, 0, 0), rgb(255, 255, 255));&quot;&gt;&amp;nbsp;Package&lt;/span&gt;" style="text;html=1;align=left;verticalAlign=middle;whiteSpace=wrap;rounded=0;" vertex="1" parent="1">
          <mxGeometry x="166" y="569.5" width="117" height="20" as="geometry" />
        </mxCell>
        <mxCell id="XjmhYz4xHQ0g7yBsy22V-44" value="" style="endArrow=classic;startArrow=classic;html=1;rounded=0;exitX=0.5;exitY=1;exitDx=0;exitDy=0;entryX=0.883;entryY=0.005;entryDx=0;entryDy=0;entryPerimeter=0;" edge="1" parent="1" source="XjmhYz4xHQ0g7yBsy22V-14" target="XjmhYz4xHQ0g7yBsy22V-71">
          <mxGeometry width="50" height="50" relative="1" as="geometry">
            <mxPoint x="233" y="291" as="sourcePoint" />
            <mxPoint x="780" y="483" as="targetPoint" />
          </mxGeometry>
        </mxCell>
        <mxCell id="XjmhYz4xHQ0g7yBsy22V-45" value="REST API" style="edgeLabel;html=1;align=center;verticalAlign=middle;resizable=0;points=[];" connectable="0" vertex="1" parent="XjmhYz4xHQ0g7yBsy22V-44">
          <mxGeometry x="0.0062" y="-4" relative="1" as="geometry">
            <mxPoint x="3" y="2" as="offset" />
          </mxGeometry>
        </mxCell>
        <mxCell id="XjmhYz4xHQ0g7yBsy22V-46" value="" style="endArrow=classic;html=1;rounded=0;entryX=0.5;entryY=0;entryDx=0;entryDy=0;exitX=0.612;exitY=1.002;exitDx=0;exitDy=0;startArrow=classic;startFill=1;exitPerimeter=0;" edge="1" parent="1" source="XjmhYz4xHQ0g7yBsy22V-4" target="XjmhYz4xHQ0g7yBsy22V-71">
          <mxGeometry width="50" height="50" relative="1" as="geometry">
            <mxPoint x="381" y="569" as="sourcePoint" />
            <mxPoint x="343" y="623" as="targetPoint" />
          </mxGeometry>
        </mxCell>
        <mxCell id="ew9Zyq1ydCr5Sf9a5HGO-7" value="read" style="edgeLabel;html=1;align=center;verticalAlign=middle;resizable=0;points=[];" connectable="0" vertex="1" parent="XjmhYz4xHQ0g7yBsy22V-46">
          <mxGeometry x="0.4807" y="1" relative="1" as="geometry">
            <mxPoint y="-18" as="offset" />
          </mxGeometry>
        </mxCell>
        <mxCell id="XjmhYz4xHQ0g7yBsy22V-47" value="" style="rounded=1;whiteSpace=wrap;html=1;dashed=1;dashPattern=8 8;fillColor=none;arcSize=6;" vertex="1" parent="1">
          <mxGeometry x="153" y="621.5" width="250" height="70" as="geometry" />
        </mxCell>
        <mxCell id="XjmhYz4xHQ0g7yBsy22V-48" value="KIP Frontend" style="text;html=1;align=left;verticalAlign=middle;whiteSpace=wrap;rounded=0;" vertex="1" parent="1">
          <mxGeometry x="163" y="670.5" width="250" height="16" as="geometry" />
        </mxCell>
        <mxCell id="pyIRqurRzb1VzpcKLrnM-4" value="" style="edgeStyle=orthogonalEdgeStyle;rounded=0;orthogonalLoop=1;jettySize=auto;html=1;" edge="1" parent="1" source="XjmhYz4xHQ0g7yBsy22V-49">
          <mxGeometry relative="1" as="geometry">
            <mxPoint x="448" y="648" as="targetPoint" />
          </mxGeometry>
        </mxCell>
        <mxCell id="ew9Zyq1ydCr5Sf9a5HGO-3" value="uses" style="edgeLabel;html=1;align=center;verticalAlign=middle;resizable=0;points=[];" connectable="0" vertex="1" parent="pyIRqurRzb1VzpcKLrnM-4">
          <mxGeometry x="-0.2141" relative="1" as="geometry">
            <mxPoint x="4" as="offset" />
          </mxGeometry>
        </mxCell>
        <mxCell id="XjmhYz4xHQ0g7yBsy22V-49" value="KIP UI" style="rounded=0;whiteSpace=wrap;html=1;" vertex="1" parent="1">
          <mxGeometry x="163" y="631.5" width="230" height="32" as="geometry" />
        </mxCell>
        <mxCell id="XjmhYz4xHQ0g7yBsy22V-50" value="" style="rounded=1;whiteSpace=wrap;html=1;dashed=1;dashPattern=8 8;fillColor=none;arcSize=6;" vertex="1" parent="1">
          <mxGeometry x="713" y="623.5" width="180" height="70" as="geometry" />
        </mxCell>
        <mxCell id="XjmhYz4xHQ0g7yBsy22V-51" value="&lt;span style=&quot;text-align: center;&quot;&gt;BRICS School UI&lt;/span&gt;&amp;nbsp;Frontend" style="text;html=1;align=right;verticalAlign=middle;whiteSpace=wrap;rounded=0;" vertex="1" parent="1">
          <mxGeometry x="703" y="671.5" width="181" height="16" as="geometry" />
        </mxCell>
        <mxCell id="pyIRqurRzb1VzpcKLrnM-5" value="" style="edgeStyle=orthogonalEdgeStyle;rounded=0;orthogonalLoop=1;jettySize=auto;html=1;entryX=0.991;entryY=0.145;entryDx=0;entryDy=0;entryPerimeter=0;" edge="1" parent="1" source="XjmhYz4xHQ0g7yBsy22V-52" target="pyIRqurRzb1VzpcKLrnM-1">
          <mxGeometry relative="1" as="geometry" />
        </mxCell>
        <mxCell id="ew9Zyq1ydCr5Sf9a5HGO-4" value="uses" style="edgeLabel;html=1;align=center;verticalAlign=middle;resizable=0;points=[];" connectable="0" vertex="1" parent="pyIRqurRzb1VzpcKLrnM-5">
          <mxGeometry x="-0.3672" y="-1" relative="1" as="geometry">
            <mxPoint x="-12" as="offset" />
          </mxGeometry>
        </mxCell>
        <mxCell id="XjmhYz4xHQ0g7yBsy22V-52" value="BRICS School UI" style="rounded=0;whiteSpace=wrap;html=1;" vertex="1" parent="1">
          <mxGeometry x="723" y="629.5" width="160" height="36" as="geometry" />
        </mxCell>
        <mxCell id="XjmhYz4xHQ0g7yBsy22V-53" value="" style="rounded=0;whiteSpace=wrap;html=1;fillColor=none;" vertex="1" parent="1">
          <mxGeometry x="923" y="43" width="200" height="397" as="geometry" />
        </mxCell>
        <mxCell id="XjmhYz4xHQ0g7yBsy22V-54" value="" style="rounded=1;whiteSpace=wrap;html=1;dashed=1;dashPattern=8 8;fillColor=none;arcSize=6;" vertex="1" parent="1">
          <mxGeometry x="931" y="91" width="91" height="77" as="geometry" />
        </mxCell>
        <mxCell id="XjmhYz4xHQ0g7yBsy22V-55" value="&lt;span&gt;Legend:&lt;/span&gt;" style="text;html=1;align=center;verticalAlign=middle;resizable=0;points=[];autosize=1;strokeColor=none;fillColor=none;fontStyle=1" vertex="1" parent="1">
          <mxGeometry x="923" y="45" width="70" height="30" as="geometry" />
        </mxCell>
        <mxCell id="XjmhYz4xHQ0g7yBsy22V-56" value="Package&lt;div&gt;Name&lt;/div&gt;" style="text;html=1;align=left;verticalAlign=middle;whiteSpace=wrap;rounded=0;" vertex="1" parent="1">
          <mxGeometry x="941" y="139.63" width="71" height="26.75" as="geometry" />
        </mxCell>
        <mxCell id="XjmhYz4xHQ0g7yBsy22V-57" value="Package" style="text;html=1;align=center;verticalAlign=middle;resizable=0;points=[];autosize=1;strokeColor=none;fillColor=none;" vertex="1" parent="1">
          <mxGeometry x="1049" y="120" width="70" height="30" as="geometry" />
        </mxCell>
        <mxCell id="XjmhYz4xHQ0g7yBsy22V-58" value="Module Name" style="rounded=0;whiteSpace=wrap;html=1;" vertex="1" parent="1">
          <mxGeometry x="931" y="185" width="91" height="40" as="geometry" />
        </mxCell>
        <mxCell id="XjmhYz4xHQ0g7yBsy22V-59" value="Module" style="text;html=1;align=center;verticalAlign=middle;resizable=0;points=[];autosize=1;strokeColor=none;fillColor=none;" vertex="1" parent="1">
          <mxGeometry x="1058" y="190" width="60" height="30" as="geometry" />
        </mxCell>
        <mxCell id="XjmhYz4xHQ0g7yBsy22V-60" value="" style="endArrow=classic;html=1;rounded=0;" edge="1" parent="1">
          <mxGeometry width="50" height="50" relative="1" as="geometry">
            <mxPoint x="931" y="252" as="sourcePoint" />
            <mxPoint x="1021" y="252" as="targetPoint" />
          </mxGeometry>
        </mxCell>
        <mxCell id="XjmhYz4xHQ0g7yBsy22V-61" value="request type" style="edgeLabel;html=1;align=center;verticalAlign=middle;resizable=0;points=[];" connectable="0" vertex="1" parent="XjmhYz4xHQ0g7yBsy22V-60">
          <mxGeometry x="-0.1409" y="1" relative="1" as="geometry">
            <mxPoint x="3" as="offset" />
          </mxGeometry>
        </mxCell>
        <mxCell id="XjmhYz4xHQ0g7yBsy22V-62" value="Request" style="text;html=1;align=center;verticalAlign=middle;resizable=0;points=[];autosize=1;strokeColor=none;fillColor=none;" vertex="1" parent="1">
          <mxGeometry x="1049" y="238" width="70" height="30" as="geometry" />
        </mxCell>
        <mxCell id="XjmhYz4xHQ0g7yBsy22V-63" value="&lt;div&gt;DB&lt;/div&gt;" style="shape=cylinder3;whiteSpace=wrap;html=1;boundedLbl=1;backgroundOutline=1;size=15;" vertex="1" parent="1">
          <mxGeometry x="931" y="277" width="71" height="80" as="geometry" />
        </mxCell>
        <mxCell id="XjmhYz4xHQ0g7yBsy22V-64" value="Database" style="text;html=1;align=center;verticalAlign=middle;resizable=0;points=[];autosize=1;strokeColor=none;fillColor=none;" vertex="1" parent="1">
          <mxGeometry x="1051" y="302" width="70" height="30" as="geometry" />
        </mxCell>
        <mxCell id="XjmhYz4xHQ0g7yBsy22V-65" value="Log Module" style="rounded=0;whiteSpace=wrap;html=1;dashed=1;dashPattern=1 4;" vertex="1" parent="1">
          <mxGeometry x="427" y="357.5" width="90" height="39" as="geometry" />
        </mxCell>
        <mxCell id="XjmhYz4xHQ0g7yBsy22V-66" value="" style="endArrow=classic;html=1;rounded=0;dashed=1;dashPattern=1 4;exitX=0.5;exitY=0;exitDx=0;exitDy=0;entryX=0.21;entryY=1.002;entryDx=0;entryDy=0;entryPerimeter=0;edgeStyle=orthogonalEdgeStyle;" edge="1" parent="1" source="XjmhYz4xHQ0g7yBsy22V-65" target="XjmhYz4xHQ0g7yBsy22V-4">
          <mxGeometry width="50" height="50" relative="1" as="geometry">
            <mxPoint x="343" y="253" as="sourcePoint" />
            <mxPoint x="473" y="193" as="targetPoint" />
          </mxGeometry>
        </mxCell>
        <mxCell id="XjmhYz4xHQ0g7yBsy22V-67" value="" style="endArrow=classic;html=1;rounded=0;entryX=0.5;entryY=1;entryDx=0;entryDy=0;dashed=1;dashPattern=1 4;edgeStyle=orthogonalEdgeStyle;exitX=0.43;exitY=-0.019;exitDx=0;exitDy=0;exitPerimeter=0;" edge="1" parent="1" source="XjmhYz4xHQ0g7yBsy22V-1" target="XjmhYz4xHQ0g7yBsy22V-65">
          <mxGeometry width="50" height="50" relative="1" as="geometry">
            <mxPoint x="483" y="453" as="sourcePoint" />
            <mxPoint x="373" y="393" as="targetPoint" />
          </mxGeometry>
        </mxCell>
        <mxCell id="XjmhYz4xHQ0g7yBsy22V-68" value="" style="endArrow=none;dashed=1;html=1;dashPattern=1 3;strokeWidth=2;rounded=0;entryX=0.385;entryY=0.841;entryDx=0;entryDy=0;entryPerimeter=0;" edge="1" parent="1">
          <mxGeometry width="50" height="50" relative="1" as="geometry">
            <mxPoint x="939" y="425" as="sourcePoint" />
            <mxPoint x="1004" y="374.87699999999995" as="targetPoint" />
          </mxGeometry>
        </mxCell>
        <mxCell id="XjmhYz4xHQ0g7yBsy22V-69" value="we need&amp;nbsp;&lt;div&gt;to think&amp;nbsp;&lt;div&gt;about&lt;/div&gt;&lt;div&gt;&amp;nbsp;that part.&lt;/div&gt;&lt;/div&gt;" style="text;html=1;align=center;verticalAlign=middle;resizable=0;points=[];autosize=1;strokeColor=none;fillColor=none;" vertex="1" parent="1">
          <mxGeometry x="1042" y="363" width="70" height="70" as="geometry" />
        </mxCell>
        <mxCell id="XjmhYz4xHQ0g7yBsy22V-70" style="edgeStyle=orthogonalEdgeStyle;rounded=0;orthogonalLoop=1;jettySize=auto;html=1;exitX=0.5;exitY=1;exitDx=0;exitDy=0;entryX=0.5;entryY=0;entryDx=0;entryDy=0;startArrow=classic;startFill=1;" edge="1" parent="1" source="XjmhYz4xHQ0g7yBsy22V-71" target="XjmhYz4xHQ0g7yBsy22V-40">
          <mxGeometry relative="1" as="geometry" />
        </mxCell>
        <mxCell id="XjmhYz4xHQ0g7yBsy22V-71" value="API Router" style="rounded=0;whiteSpace=wrap;html=1;" vertex="1" parent="1">
          <mxGeometry x="173" y="481.5" width="710" height="30" as="geometry" />
        </mxCell>
        <mxCell id="XjmhYz4xHQ0g7yBsy22V-72" value="" style="edgeStyle=orthogonalEdgeStyle;rounded=0;orthogonalLoop=1;jettySize=auto;html=1;startArrow=classic;startFill=1;endArrow=classic;endFill=1;dashed=1;exitX=1.014;exitY=0.225;exitDx=0;exitDy=0;exitPerimeter=0;" edge="1" parent="1" source="XjmhYz4xHQ0g7yBsy22V-73" target="XjmhYz4xHQ0g7yBsy22V-71">
          <mxGeometry relative="1" as="geometry" />
        </mxCell>
        <mxCell id="XjmhYz4xHQ0g7yBsy22V-73" value="Cache" style="shape=cylinder3;whiteSpace=wrap;html=1;boundedLbl=1;backgroundOutline=1;size=15;dashed=1;dashPattern=1 4;" vertex="1" parent="1">
          <mxGeometry x="10" y="469" width="100" height="121" as="geometry" />
        </mxCell>
        <mxCell id="XjmhYz4xHQ0g7yBsy22V-74" value="GemificationModule" style="rounded=0;whiteSpace=wrap;html=1;" vertex="1" parent="1">
          <mxGeometry x="178" y="211" width="120" height="40" as="geometry" />
        </mxCell>
        <mxCell id="pyIRqurRzb1VzpcKLrnM-1" value="" style="rounded=1;whiteSpace=wrap;html=1;dashed=1;dashPattern=8 8;fillColor=none;arcSize=6;" vertex="1" parent="1">
          <mxGeometry x="451" y="621.5" width="205" height="177.5" as="geometry" />
        </mxCell>
        <mxCell id="pyIRqurRzb1VzpcKLrnM-2" value="UI Library" style="text;html=1;align=left;verticalAlign=middle;whiteSpace=wrap;rounded=0;" vertex="1" parent="1">
          <mxGeometry x="463" y="781" width="180" height="16" as="geometry" />
        </mxCell>
        <mxCell id="pyIRqurRzb1VzpcKLrnM-3" value="Auth UI" style="rounded=0;whiteSpace=wrap;html=1;" vertex="1" parent="1">
          <mxGeometry x="463" y="631.5" width="182" height="32" as="geometry" />
        </mxCell>
        <mxCell id="pyIRqurRzb1VzpcKLrnM-6" value="Resume UI" style="rounded=0;whiteSpace=wrap;html=1;" vertex="1" parent="1">
          <mxGeometry x="463" y="670.5" width="182" height="32" as="geometry" />
        </mxCell>
        <mxCell id="pyIRqurRzb1VzpcKLrnM-7" value="Competition UI" style="rounded=0;whiteSpace=wrap;html=1;" vertex="1" parent="1">
          <mxGeometry x="463" y="708" width="182" height="32" as="geometry" />
        </mxCell>
        <mxCell id="pyIRqurRzb1VzpcKLrnM-8" value="Profile UI" style="rounded=0;whiteSpace=wrap;html=1;" vertex="1" parent="1">
          <mxGeometry x="463" y="744" width="182" height="32" as="geometry" />
        </mxCell>
      </root>
    </mxGraphModel>
  </diagram>
</mxfile>
